<?xml version="1.0" encoding="UTF-8"?>
<svg version="1.1" xmlns="http://www.w3.org/2000/svg" width="500" height="500">
<path d="M0 0 C0.56960449 0.47163574 1.13920898 0.94327148 1.72607422 1.42919922 C3.0703125 2.8203125 3.0703125 2.8203125 4.0703125 5.8203125 C2.47265625 8.32421875 2.47265625 8.32421875 0.0078125 11.3828125 C-0.91332808 12.53600512 -1.83386517 13.68967998 -2.75390625 14.84375 C-3.25970215 15.47249023 -3.76549805 16.10123047 -4.28662109 16.74902344 C-6.08181014 19.01208196 -7.83036337 21.30655047 -9.57421875 23.609375 C-10.19224365 24.42075928 -10.81026855 25.23214355 -11.44702148 26.06811523 C-12.67132451 27.67600853 -13.89100997 29.28742983 -15.10571289 30.90258789 C-15.95830688 32.01234985 -15.95830688 32.01234985 -16.828125 33.14453125 C-17.33005371 33.80541748 -17.83198242 34.46630371 -18.34912109 35.1472168 C-20.0690742 36.96785915 -21.64007401 37.84386879 -23.9296875 38.8203125 C-24.74050781 38.17964844 -25.55132812 37.53898437 -26.38671875 36.87890625 C-43.6293223 22.96912641 -43.6293223 22.96912641 -64.6796875 18.3203125 C-65.85712524 18.32998047 -65.85712524 18.32998047 -67.05834961 18.33984375 C-77.31570727 18.65930249 -85.33637236 22.30773738 -92.734375 29.4140625 C-96.1408894 33.14789323 -99.17843823 37.13892676 -102.19140625 41.19140625 C-105.17254272 45.18711734 -108.32819515 49.03139424 -111.4921875 52.8828125 C-116.07089736 58.47989976 -120.52076537 64.13354343 -124.8046875 69.9609375 C-126.27116614 71.9342139 -127.77377287 73.88097241 -129.3046875 75.8046875 C-136.82853198 85.35799003 -142.49470253 95.32149506 -141.9296875 107.8203125 C-140.40397942 119.8225494 -135.84663234 129.29603272 -126.4765625 137.0625 C-116.94891594 143.63832968 -106.60535269 145.85450419 -95.2421875 144.1328125 C-86.88590376 142.34982166 -78.54611965 138.13669925 -72.9921875 131.5078125 C-72.46625 130.6725 -72.46625 130.6725 -71.9296875 129.8203125 C-68.17245024 130.35526592 -66.01711246 131.19501689 -63.14453125 133.6640625 C-62.1090918 134.53816772 -62.1090918 134.53816772 -61.05273438 135.42993164 C-60.33150391 136.05375732 -59.61027344 136.67758301 -58.8671875 137.3203125 C-52.77782103 142.49324773 -46.64701019 147.33220386 -40.0546875 151.85546875 C-37.9296875 153.8203125 -37.9296875 153.8203125 -36.7421875 156.14453125 C-37.04822215 160.51190068 -39.86732297 162.64678367 -42.9296875 165.5703125 C-43.56616211 166.18648437 -44.20263672 166.80265625 -44.85839844 167.4375 C-60.94000545 182.50268011 -83.01594024 190.54639239 -105.06640625 190.00390625 C-127.69571854 188.55291351 -146.50299455 180.2589752 -162.9296875 164.8203125 C-163.7546875 164.05074219 -164.5796875 163.28117188 -165.4296875 162.48828125 C-180.03251655 147.60657873 -186.65721959 126.01875582 -187.2421875 105.5703125 C-186.72284383 80.21412142 -175.85944943 61.96287571 -160.34863281 42.59814453 C-158.50041964 40.28247207 -156.67432046 37.94989976 -154.84863281 35.61645508 C-150.05959033 29.49568642 -145.22059822 23.4165572 -140.34228516 17.36669922 C-137.95304474 14.39350831 -135.60058318 11.40540341 -133.3359375 8.3359375 C-119.6000558 -10.25917086 -101.57137635 -21.89912664 -78.765625 -25.9921875 C-47.93805811 -30.44025326 -23.27279537 -19.27506839 0 0 Z " fill="#0096FE" transform="translate(301.9296875,209.1796875)"/>
<path d="M0 0 C16.78837801 13.26069352 27.70519024 33.00578265 30.609375 54.171875 C33.22748601 80.81842701 25.66791151 102.80957718 8.7734375 123.4375 C7.93123657 124.45638306 7.93123657 124.45638306 7.07202148 125.49584961 C3.22747657 130.15075088 -0.45170506 134.89469212 -4.0390625 139.75 C-9.19259521 146.70893767 -14.58084245 153.4456877 -20.0859375 160.12890625 C-22.48687839 163.04833533 -24.76719999 166.04130468 -27.0390625 169.0625 C-40.9799712 186.34341808 -61.26882993 195.52719372 -82.9921875 198.4375 C-110.2145319 201.22953532 -132.60816726 189.91740044 -153.12304688 173.28051758 C-154.46418315 172.20921491 -155.84314651 171.18436727 -157.24707031 170.19677734 C-159.0390625 168.75 -159.0390625 168.75 -159.6171875 166.45703125 C-158.78472042 162.5590604 -156.43120492 160.2688879 -153.7890625 157.4375 C-148.44803623 151.50918579 -143.63621951 145.34714075 -139.04980469 138.81713867 C-138.58219727 138.1697876 -138.11458984 137.52243652 -137.6328125 136.85546875 C-137.22740234 136.27949951 -136.82199219 135.70353027 -136.40429688 135.11010742 C-134.66465443 133.37699797 -133.4707363 132.98449979 -131.0390625 132.75 C-128.4453125 134.55859375 -128.4453125 134.55859375 -125.5390625 137.1875 C-124.46973307 138.11871869 -123.39672102 139.04572325 -122.3203125 139.96875 C-121.50240234 140.67064453 -121.50240234 140.67064453 -120.66796875 141.38671875 C-110.76025557 149.67878565 -101.36109761 154.30347933 -88.2890625 153.625 C-74.67957875 152.0858322 -65.48953162 145.29326823 -57.0390625 134.75 C-54.58224064 131.60910549 -52.15447191 128.44855375 -49.7421875 125.2734375 C-46.90248176 121.54919897 -43.97543919 117.89819716 -41.0390625 114.25 C-21.4906118 92.14797783 -21.4906118 92.14797783 -14.0390625 64.75 C-15.45229553 53.78181091 -18.56453784 44.1698162 -26.75 36.453125 C-35.95205624 29.6065439 -46.50917903 25.53181291 -58.0390625 26.75 C-67.84997649 28.85405631 -75.00633564 32.33273594 -81.7890625 39.6875 C-84.0390625 41.75 -84.0390625 41.75 -85.79296875 41.67578125 C-89.0339436 40.33993596 -91.54083151 38.20175021 -94.2265625 36 C-95.46127929 35.00791825 -96.69700489 34.01709106 -97.93359375 33.02734375 C-98.59053223 32.49995605 -99.2474707 31.97256836 -99.92431641 31.42919922 C-103.71337071 28.42052738 -107.56540222 25.49427237 -111.4140625 22.5625 C-112.16969482 21.9859668 -112.92532715 21.40943359 -113.70385742 20.81542969 C-115.48160587 19.45942566 -117.25998848 18.10426411 -119.0390625 16.75 C-117.71792791 8.29186661 -110.9627742 3.47107502 -104.47680664 -1.47387695 C-72.5309898 -24.78520858 -31.31534113 -23.18462274 0 0 Z " fill="#0096FE" transform="translate(354.0390625,119.25)"/>
<path d="M0 0 C-0.86882812 0.45890625 -1.73765625 0.9178125 -2.6328125 1.390625 C-4.36144531 2.31101562 -4.36144531 2.31101562 -6.125 3.25 C-7.26195312 3.85328125 -8.39890625 4.4565625 -9.5703125 5.078125 C-14.58072548 7.88578239 -18.92351089 10.51045198 -22.5625 15 C-25.14311449 18.0737986 -27.73637641 20.62645557 -31 23 C-30.04153517 16.53036239 -24.74755739 12.71554474 -19.8125 9 C-19.24023682 8.56647217 -18.66797363 8.13294434 -18.07836914 7.6862793 C-5.2917869 -1.85035756 -5.2917869 -1.85035756 0 0 Z " fill="#0CA2FE" transform="translate(268,110)"/>
<path d="M0 0 C0.99 0.33 1.98 0.66 3 1 C1.5489926 2.83913695 0.08898341 4.6711753 -1.375 6.5 C-2.18710937 7.5209375 -2.99921875 8.541875 -3.8359375 9.59375 C-4.90714844 10.78484375 -4.90714844 10.78484375 -6 12 C-6.66 12 -7.32 12 -8 12 C-8.10634766 12.81210938 -8.10634766 12.81210938 -8.21484375 13.640625 C-9.31991126 16.96132537 -11.31200763 19.08744565 -13.5625 21.75 C-14.80193359 23.22726563 -14.80193359 23.22726563 -16.06640625 24.734375 C-16.70449219 25.48203125 -17.34257812 26.2296875 -18 27 C-18.33 26.01 -18.66 25.02 -19 24 C-18.01538086 22.31762695 -18.01538086 22.31762695 -16.46484375 20.48828125 C-15.90216797 19.81216797 -15.33949219 19.13605469 -14.75976562 18.43945312 C-14.15841797 17.73755859 -13.55707031 17.03566406 -12.9375 16.3125 C-11.77842242 14.9348758 -10.62086607 13.55597025 -9.46484375 12.17578125 C-8.89233887 11.49467285 -8.31983398 10.81356445 -7.72998047 10.11181641 C-5.03870831 6.82653498 -2.51035333 3.42456471 0 0 Z " fill="#0EA2FE" transform="translate(314,232)"/>
<path d="M0 0 C0.66 0.33 1.32 0.66 2 1 C0.6875 2.75 -0.625 4.5 -1.9375 6.25 C-2.53896851 7.05232056 -2.53896851 7.05232056 -3.15258789 7.87084961 C-5.27635991 10.70351067 -7.40184372 13.53485258 -9.53125 16.36328125 C-9.93480713 16.89985352 -10.33836426 17.43642578 -10.75415039 17.98925781 C-11.88637093 19.49452481 -13.0193397 20.99922891 -14.15234375 22.50390625 C-15.48287762 24.30139282 -16.7594941 26.13924116 -18 28 C-18.66 27.67 -19.32 27.34 -20 27 C-13.72099519 17.66676322 -7.03659974 8.77273277 0 0 Z " fill="#0B97FE" transform="translate(146,246)"/>
<path d="M0 0 C0.66 0.33 1.32 0.66 2 1 C-4 7 -10 13 -16 19 C-16 14.76641181 -13.57639709 12.97541337 -10.8125 10.0625 C-10.08836914 9.27456055 -10.08836914 9.27456055 -9.34960938 8.47070312 C-6.43336087 5.34307553 -3.41697361 2.59240228 0 0 Z " fill="#0DA4FE" transform="translate(187,198)"/>
<path d="M0 0 C0.66 0 1.32 0 2 0 C0.70336847 4.33922235 -0.95514051 7.92471993 -3.375 11.75 C-3.96023438 12.69359375 -4.54546875 13.6371875 -5.1484375 14.609375 C-6.99806645 16.99750352 -8.21392901 17.94448412 -11 19 C-9.58653605 16.01076046 -7.93825606 13.34556222 -6.0625 10.625 C-3.73033484 7.17522024 -1.74341217 3.77739303 0 0 Z " fill="#0B9EFE" transform="translate(338,198)"/>
<path d="M0 0 C0.66 0.33 1.32 0.66 2 1 C0.54927753 3.00593724 -0.90991029 5.00460174 -2.375 7 C-2.7875 7.57234375 -3.2 8.1446875 -3.625 8.734375 C-4.70171719 10.19315312 -5.84666578 11.60100976 -7 13 C-7.66 13 -8.32 13 -9 13 C-7.50923566 9.7173068 -5.61379679 7.06922559 -3.375 4.25 C-2.74335938 3.45078125 -2.11171875 2.6515625 -1.4609375 1.828125 C-0.97882813 1.22484375 -0.49671875 0.6215625 0 0 Z " fill="#10A9FE" transform="translate(146,246)"/>
<path d="M0 0 C-1.78881736 1.00508801 -3.58114696 2.00392736 -5.375 3 C-6.37273437 3.556875 -7.37046875 4.11375 -8.3984375 4.6875 C-11 6 -11 6 -13 6 C-12 3 -12 3 -10.29296875 1.796875 C-9.59816406 1.45140625 -8.90335938 1.1059375 -8.1875 0.75 C-7.50042969 0.39421875 -6.81335938 0.0384375 -6.10546875 -0.328125 C-3.64922558 -1.11193544 -2.39957614 -0.84119973 0 0 Z " fill="#0A9FFE" transform="translate(205,191)"/>
<path d="M0 0 C0.99 0 1.98 0 3 0 C2.1875 1.9375 2.1875 1.9375 1 4 C0.01 4.33 -0.98 4.66 -2 5 C-3.20882096 7.00016466 -3.20882096 7.00016466 -4 9 C-4.33 8.34 -4.66 7.68 -5 7 C-4.24172908 5.82512964 -3.46792245 4.66027408 -2.6875 3.5 C-2.25824219 2.8503125 -1.82898438 2.200625 -1.38671875 1.53125 C-0.70029297 0.77328125 -0.70029297 0.77328125 0 0 Z " fill="#0BA1FE" transform="translate(218,254)"/>
<path d="M0 0 C3.63 1.98 7.26 3.96 11 6 C10.67 6.66 10.34 7.32 10 8 C6.7 6.35 3.4 4.7 0 3 C0 2.01 0 1.02 0 0 Z " fill="#089EFF" transform="translate(175,346)"/>
<path d="M0 0 C2.66666667 2.66666667 5.33333333 5.33333333 8 8 C7.67 8.99 7.34 9.98 7 11 C5.82439821 9.73742767 4.65977135 8.46462916 3.5 7.1875 C2.8503125 6.47980469 2.200625 5.77210938 1.53125 5.04296875 C0 3 0 3 0 0 Z " fill="#0BA6FE" transform="translate(360,125)"/>
<path d="M0 0 C3.86933162 0.57323431 6.15222057 2.38953552 9 5 C9 5.66 9 6.32 9 7 C6.50638429 5.79618552 4.31856917 4.54571278 2 3 C2 2.34 2 1.68 2 1 C1.34 0.67 0.68 0.34 0 0 Z " fill="#07A8FE" transform="translate(220,252)"/>
<path d="M0 0 C2.04119788 1.61594832 4.04072937 3.2856382 6 5 C6 5.66 6 6.32 6 7 C2.63279613 5.60667426 1.0140476 4.0210714 -1 1 C-0.67 0.67 -0.34 0.34 0 0 Z " fill="#08ACFE" transform="translate(326,152)"/>
<path d="M0 0 C-1.39332574 3.36720387 -2.9789286 4.9859524 -6 7 C-5.37162381 3.35541809 -4.14650034 0 0 0 Z " fill="#06A8FF" transform="translate(275,154)"/>
</svg>
