<svg id="svg" version="1.1" xmlns="http://www.w3.org/2000/svg" xmlns:xlink="http://www.w3.org/1999/xlink" width="400" height="400" viewBox="0, 0, 400,400"><g id="svgg"><path id="path0" d="M234.600 82.667 C 223.236 84.063,213.711 87.326,205.507 92.633 C 198.901 96.906,189.947 105.317,190.027 107.174 C 190.047 107.649,211.043 124.529,214.157 126.575 C 214.584 126.856,215.530 126.201,217.908 123.975 C 239.456 103.815,273.868 118.612,273.781 148.000 C 273.750 158.413,271.999 162.292,260.962 176.400 C 257.433 180.910,251.874 188.020,248.607 192.200 C 231.264 214.393,228.943 216.478,218.479 219.263 C 206.823 222.366,197.737 219.600,183.962 208.758 C 180.358 205.921,177.283 203.600,177.130 203.600 C 176.814 203.600,174.048 206.971,167.976 214.754 C 165.679 217.698,162.311 222.011,160.492 224.336 L 157.183 228.565 158.092 229.433 C 159.682 230.953,171.691 240.059,174.592 241.944 C 199.833 258.345,233.904 255.192,255.294 234.476 C 258.468 231.403,268.040 219.930,272.992 213.266 C 273.427 212.680,275.497 210.049,277.592 207.419 C 279.686 204.789,281.760 202.150,282.200 201.553 C 282.640 200.957,285.242 197.619,287.983 194.135 C 303.985 173.793,309.002 157.218,305.397 136.600 C 299.551 103.163,267.363 78.642,234.600 82.667 M184.800 147.612 C 163.204 149.295,149.624 157.743,132.097 180.399 C 131.161 181.610,129.408 183.860,128.201 185.400 C 126.995 186.940,124.791 189.754,123.304 191.653 C 121.817 193.551,118.440 197.849,115.800 201.203 C 108.762 210.144,108.616 210.333,106.260 213.600 C 104.392 216.190,100.400 222.597,100.400 223.005 C 100.400 223.082,99.882 224.282,99.249 225.672 C 85.115 256.710,98.918 294.980,129.800 310.381 C 156.501 323.697,189.203 317.536,208.189 295.613 C 210.941 292.435,210.978 292.675,207.282 289.813 C 205.587 288.500,199.986 284.124,194.836 280.088 L 185.472 272.750 183.036 275.117 C 170.319 287.478,153.058 288.521,138.598 277.805 C 124.978 267.711,122.071 246.746,132.328 232.601 C 133.729 230.670,146.734 213.981,152.590 206.600 C 154.161 204.620,157.326 200.570,159.623 197.600 C 169.923 184.283,177.486 179.875,190.000 179.893 C 199.768 179.907,204.699 182.079,216.888 191.736 C 220.126 194.301,222.931 196.400,223.120 196.400 C 223.428 196.400,228.989 189.453,239.370 176.101 C 241.293 173.627,242.807 171.429,242.734 171.218 C 242.206 169.699,224.057 156.625,219.000 154.120 C 210.920 150.118,196.027 146.679,189.278 147.258 C 188.905 147.290,186.890 147.450,184.800 147.612 " stroke="none" fill="#fbfbfc" fill-rule="evenodd"></path><path id="path1" d="M0.000 200.000 L 0.000 400.000 200.000 400.000 L 400.000 400.000 400.000 200.000 L 400.000 0.000 200.000 0.000 L 0.000 0.000 0.000 200.000 M254.600 82.998 C 261.363 84.613,261.807 84.736,264.077 85.626 C 291.544 96.400,308.314 121.999,307.055 151.231 C 306.540 163.203,302.070 176.552,295.602 185.435 C 293.420 188.432,288.625 194.626,282.000 203.006 C 279.690 205.928,276.000 210.629,273.800 213.454 C 258.641 232.914,254.875 236.946,247.000 242.142 C 238.157 247.976,229.271 251.324,218.627 252.828 C 214.613 253.396,205.423 253.387,201.782 252.813 C 195.162 251.769,190.101 250.554,188.305 249.578 C 187.923 249.370,187.420 249.200,187.186 249.200 C 185.071 249.200,174.777 243.270,168.060 238.183 C 154.685 228.053,155.662 229.218,158.024 226.204 C 159.001 224.957,160.970 222.435,162.400 220.599 C 171.393 209.051,175.708 203.627,176.391 203.008 C 177.147 202.324,177.339 202.437,182.685 206.685 C 192.548 214.522,195.007 216.113,199.612 217.630 C 214.443 222.516,227.051 218.166,237.961 204.400 C 241.988 199.320,244.338 196.326,253.276 184.900 C 255.299 182.315,258.270 178.540,259.880 176.511 C 269.080 164.918,271.048 161.447,272.643 154.000 C 273.938 147.954,273.007 140.269,270.267 134.400 C 262.905 118.627,243.990 111.223,228.504 118.052 C 227.572 118.464,226.726 118.800,226.626 118.800 C 225.732 118.800,220.802 122.348,218.124 124.919 L 214.800 128.111 211.900 125.861 C 210.305 124.624,206.120 121.340,202.600 118.563 C 199.080 115.786,194.580 112.255,192.600 110.717 C 188.401 107.454,188.390 107.431,190.008 105.374 C 204.310 87.185,231.984 77.599,254.600 82.998 M200.000 147.272 C 212.835 149.398,222.136 153.734,234.311 163.269 C 245.364 171.925,244.690 170.615,240.718 175.706 C 237.715 179.553,231.337 187.684,226.602 193.700 C 223.157 198.077,223.644 198.140,216.392 192.394 C 205.359 183.653,201.756 181.831,193.417 180.782 C 188.696 180.187,182.403 180.962,178.600 182.605 C 177.940 182.890,176.716 183.405,175.880 183.750 C 171.050 185.739,166.674 189.765,159.981 198.381 C 157.681 201.340,154.720 205.152,153.400 206.852 C 152.080 208.551,149.118 212.339,146.817 215.271 C 144.517 218.202,140.729 223.030,138.400 226.000 C 127.004 240.533,124.807 248.119,128.207 261.200 C 130.741 270.948,140.073 280.225,150.000 282.864 C 157.270 284.798,161.385 284.801,168.845 282.881 C 173.029 281.804,179.210 277.995,182.856 274.245 C 185.681 271.341,184.621 270.978,193.292 277.819 C 196.651 280.469,202.010 284.677,205.200 287.169 C 208.390 289.661,211.164 291.851,211.365 292.035 C 212.215 292.815,204.412 301.184,199.200 305.083 C 192.581 310.033,182.099 315.014,175.400 316.390 C 174.520 316.571,172.270 317.040,170.400 317.431 C 164.275 318.714,151.165 318.289,143.720 316.566 C 121.835 311.501,100.697 291.428,95.634 270.902 C 95.431 270.076,94.998 268.320,94.674 267.000 C 91.571 254.379,92.816 238.622,97.857 226.710 C 101.336 218.489,102.362 217.031,124.494 188.867 C 129.963 181.908,133.360 177.570,136.800 173.153 C 145.539 161.933,155.072 154.946,168.000 150.288 C 170.134 149.520,170.818 149.314,174.200 148.424 C 180.987 146.639,192.948 146.105,200.000 147.272 " stroke="none" fill="#0494fc" fill-rule="evenodd"></path><path id="path2" d="M240.300 81.882 C 240.795 81.978,241.605 81.978,242.100 81.882 C 242.595 81.787,242.190 81.709,241.200 81.709 C 240.210 81.709,239.805 81.787,240.300 81.882 M235.705 82.287 C 236.314 82.379,237.214 82.377,237.705 82.282 C 238.197 82.187,237.700 82.111,236.600 82.114 C 235.500 82.117,235.097 82.195,235.705 82.287 M245.300 82.276 C 245.685 82.376,246.315 82.376,246.700 82.276 C 247.085 82.175,246.770 82.093,246.000 82.093 C 245.230 82.093,244.915 82.175,245.300 82.276 M286.400 100.125 C 286.400 100.194,286.985 100.779,287.700 101.425 L 289.000 102.600 287.825 101.300 C 286.730 100.088,286.400 99.816,286.400 100.125 M217.381 124.900 L 215.800 126.600 217.500 125.019 C 219.081 123.548,219.384 123.200,219.081 123.200 C 219.016 123.200,218.251 123.965,217.381 124.900 M306.501 143.800 C 306.505 144.680,306.587 144.993,306.683 144.495 C 306.779 143.998,306.775 143.278,306.675 142.895 C 306.575 142.513,306.496 142.920,306.501 143.800 M189.111 147.093 C 190.051 147.178,191.491 147.177,192.311 147.091 C 193.130 147.005,192.360 146.936,190.600 146.937 C 188.840 146.939,188.170 147.009,189.111 147.093 M306.509 152.000 C 306.509 152.990,306.587 153.395,306.682 152.900 C 306.778 152.405,306.778 151.595,306.682 151.100 C 306.587 150.605,306.509 151.010,306.509 152.000 M186.705 180.283 C 187.202 180.379,187.922 180.375,188.305 180.275 C 188.687 180.175,188.280 180.096,187.400 180.101 C 186.520 180.105,186.207 180.187,186.705 180.283 M191.300 180.276 C 191.685 180.376,192.315 180.376,192.700 180.276 C 193.085 180.175,192.770 180.093,192.000 180.093 C 191.230 180.093,190.915 180.175,191.300 180.276 M212.305 219.883 C 212.802 219.979,213.522 219.975,213.905 219.875 C 214.287 219.775,213.880 219.696,213.000 219.701 C 212.120 219.705,211.807 219.787,212.305 219.883 M258.575 231.700 L 257.400 233.000 258.700 231.825 C 259.415 231.179,260.000 230.594,260.000 230.525 C 260.000 230.216,259.670 230.488,258.575 231.700 M254.778 235.500 L 253.400 237.000 254.900 235.622 C 256.296 234.338,256.584 234.000,256.278 234.000 C 256.212 234.000,255.537 234.675,254.778 235.500 M93.348 251.600 C 93.348 253.910,93.414 254.855,93.495 253.700 C 93.576 252.545,93.576 250.655,93.495 249.500 C 93.414 248.345,93.348 249.290,93.348 251.600 M209.300 253.087 C 209.905 253.178,210.895 253.178,211.500 253.087 C 212.105 252.995,211.610 252.920,210.400 252.920 C 209.190 252.920,208.695 252.995,209.300 253.087 M161.300 284.676 C 161.685 284.776,162.315 284.776,162.700 284.676 C 163.085 284.575,162.770 284.493,162.000 284.493 C 161.230 284.493,160.915 284.575,161.300 284.676 M111.983 298.100 C 113.641 299.866,114.000 300.184,114.000 299.883 C 114.000 299.819,113.145 298.964,112.100 297.983 L 110.200 296.200 111.983 298.100 M202.175 302.100 L 201.000 303.400 202.300 302.225 C 203.512 301.130,203.784 300.800,203.475 300.800 C 203.406 300.800,202.821 301.385,202.175 302.100 M157.900 317.895 C 159.055 317.976,160.945 317.976,162.100 317.895 C 163.255 317.814,162.310 317.748,160.000 317.748 C 157.690 317.748,156.745 317.814,157.900 317.895 " stroke="none" fill="#61befc" fill-rule="evenodd"></path><path id="path3" d="M239.900 82.293 C 240.835 82.377,242.365 82.377,243.300 82.293 C 244.235 82.209,243.470 82.140,241.600 82.140 C 239.730 82.140,238.965 82.209,239.900 82.293 M231.200 82.802 C 230.600 82.995,231.240 83.037,232.800 82.906 C 234.230 82.786,235.475 82.623,235.567 82.544 C 235.889 82.265,232.188 82.484,231.200 82.802 M246.833 82.547 C 246.925 82.628,248.170 82.797,249.600 82.923 C 251.230 83.066,251.827 83.026,251.200 82.816 C 250.220 82.486,246.505 82.258,246.833 82.547 M226.400 83.620 C 225.726 83.849,226.051 83.884,227.400 83.728 C 228.500 83.601,229.475 83.431,229.567 83.349 C 229.882 83.068,227.399 83.280,226.400 83.620 M253.600 83.600 C 254.968 84.038,256.019 84.038,255.000 83.600 C 254.560 83.411,253.840 83.262,253.400 83.268 C 252.757 83.277,252.796 83.343,253.600 83.600 M223.400 84.400 C 222.896 84.617,222.822 84.744,223.200 84.744 C 223.530 84.744,224.160 84.589,224.600 84.400 C 225.104 84.183,225.178 84.056,224.800 84.056 C 224.470 84.056,223.840 84.211,223.400 84.400 M257.000 84.400 C 258.196 84.914,259.195 84.914,258.400 84.400 C 258.070 84.187,257.440 84.022,257.000 84.034 L 256.200 84.056 257.000 84.400 M220.600 85.200 C 220.096 85.417,220.022 85.544,220.400 85.544 C 220.730 85.544,221.360 85.389,221.800 85.200 C 222.304 84.983,222.378 84.856,222.000 84.856 C 221.670 84.856,221.040 85.011,220.600 85.200 M259.233 84.944 C 259.325 85.023,259.940 85.208,260.600 85.356 C 261.476 85.552,261.638 85.515,261.200 85.218 C 260.660 84.853,258.832 84.598,259.233 84.944 M268.400 88.400 C 269.610 89.039,270.780 89.562,271.000 89.562 C 271.220 89.562,270.410 89.039,269.200 88.400 C 267.990 87.761,266.820 87.238,266.600 87.238 C 266.380 87.238,267.190 87.761,268.400 88.400 M211.600 88.800 C 210.830 89.222,210.380 89.566,210.600 89.566 C 210.820 89.566,211.630 89.222,212.400 88.800 C 213.170 88.378,213.620 88.034,213.400 88.034 C 213.180 88.034,212.370 88.378,211.600 88.800 M208.081 90.572 C 206.121 91.958,205.985 92.265,207.800 91.205 C 209.678 90.110,210.325 89.591,209.780 89.620 C 209.571 89.630,208.807 90.059,208.081 90.572 M271.600 89.711 C 272.071 90.226,280.795 95.915,280.579 95.566 C 280.311 95.133,273.943 90.806,272.400 90.008 C 271.850 89.724,271.490 89.590,271.600 89.711 M204.405 92.853 C 202.391 94.081,197.328 98.237,194.988 100.583 C 193.846 101.728,193.673 101.974,194.588 101.152 C 197.250 98.760,202.991 94.194,204.545 93.234 C 205.345 92.739,206.000 92.259,206.000 92.167 C 206.000 91.902,205.882 91.953,204.405 92.853 M283.000 97.751 C 284.100 98.759,285.165 99.587,285.367 99.592 C 285.568 99.596,285.658 99.546,285.567 99.481 C 285.475 99.415,284.410 98.587,283.200 97.640 L 281.000 95.919 283.000 97.751 M288.405 102.579 C 290.550 104.948,292.923 107.976,296.112 112.410 L 296.823 113.400 296.356 112.400 C 295.520 110.607,291.476 105.463,288.652 102.600 L 285.890 99.800 288.405 102.579 M190.867 104.994 C 190.094 106.021,189.613 107.065,189.721 107.482 C 189.879 108.090,189.914 108.073,189.954 107.372 C 189.979 106.917,190.644 105.792,191.431 104.872 C 192.218 103.952,192.713 103.206,192.531 103.212 C 192.349 103.219,191.600 104.021,190.867 104.994 M190.423 108.238 C 190.435 108.437,191.470 109.359,192.723 110.288 C 193.975 111.216,196.395 113.074,198.100 114.417 C 199.805 115.760,201.200 116.769,201.200 116.659 C 201.200 116.549,199.085 114.798,196.500 112.768 C 193.915 110.737,191.485 108.806,191.100 108.476 C 190.715 108.146,190.410 108.039,190.423 108.238 M298.250 116.143 C 299.059 117.652,300.322 120.262,301.056 121.943 C 301.790 123.624,302.391 124.730,302.391 124.400 C 302.393 123.652,298.329 115.288,297.436 114.200 C 297.074 113.760,297.440 114.634,298.250 116.143 M238.500 115.096 C 239.765 115.175,241.835 115.175,243.100 115.096 C 244.365 115.016,243.330 114.951,240.800 114.951 C 238.270 114.951,237.235 115.016,238.500 115.096 M233.200 115.600 C 232.408 115.854,232.367 115.920,233.000 115.920 C 233.440 115.920,234.250 115.776,234.800 115.600 C 235.592 115.346,235.633 115.280,235.000 115.280 C 234.560 115.280,233.750 115.424,233.200 115.600 M247.000 115.600 C 247.440 115.789,248.160 115.944,248.600 115.944 L 249.400 115.944 248.600 115.600 C 248.160 115.411,247.440 115.256,247.000 115.256 L 246.200 115.256 247.000 115.600 M230.400 116.400 C 229.867 116.745,229.867 116.788,230.400 116.788 C 230.730 116.788,231.270 116.613,231.600 116.400 C 232.133 116.055,232.133 116.012,231.600 116.012 C 231.270 116.012,230.730 116.187,230.400 116.400 M250.000 116.400 C 250.330 116.613,250.870 116.788,251.200 116.788 C 251.733 116.788,251.733 116.745,251.200 116.400 C 250.870 116.187,250.330 116.012,250.000 116.012 C 249.467 116.012,249.467 116.055,250.000 116.400 M201.623 117.038 C 201.635 117.237,202.670 118.159,203.923 119.088 C 205.175 120.016,207.595 121.874,209.300 123.217 C 211.005 124.560,212.400 125.569,212.400 125.459 C 212.400 125.349,210.285 123.598,207.700 121.568 C 205.115 119.537,202.685 117.606,202.300 117.276 C 201.915 116.946,201.610 116.839,201.623 117.038 M227.400 117.578 C 226.520 117.995,225.980 118.336,226.200 118.338 C 226.746 118.342,229.902 116.864,229.400 116.840 C 229.180 116.830,228.280 117.162,227.400 117.578 M254.329 117.977 C 258.465 119.940,262.194 122.652,265.251 125.922 C 266.834 127.615,267.754 128.460,267.295 127.800 C 264.463 123.728,256.912 118.122,252.800 117.040 C 252.250 116.896,252.938 117.317,254.329 117.977 M222.334 120.372 C 220.720 121.457,218.416 123.347,217.214 124.572 C 214.891 126.939,214.397 127.160,213.592 126.190 C 213.314 125.855,212.990 125.677,212.872 125.794 C 212.621 126.045,214.016 127.169,214.600 127.186 C 214.820 127.192,216.216 126.039,217.702 124.624 C 219.187 123.208,221.572 121.293,223.002 120.369 C 225.365 118.840,225.909 118.400,225.434 118.400 C 225.342 118.400,223.947 119.287,222.334 120.372 M303.234 127.600 C 303.246 127.930,303.411 128.560,303.600 129.000 L 303.944 129.800 303.966 129.000 C 303.978 128.560,303.813 127.930,303.600 127.600 C 303.255 127.067,303.215 127.067,303.234 127.600 M304.056 130.400 C 304.056 130.730,304.211 131.360,304.400 131.800 C 304.617 132.304,304.744 132.378,304.744 132.000 C 304.744 131.670,304.589 131.040,304.400 130.600 C 304.183 130.096,304.056 130.022,304.056 130.400 M268.809 130.700 C 268.814 130.865,269.185 131.450,269.633 132.000 L 270.448 133.000 269.814 131.700 C 269.211 130.465,268.789 130.045,268.809 130.700 M305.062 134.600 C 305.196 135.480,305.372 136.275,305.453 136.367 C 305.756 136.710,305.529 134.568,305.181 133.800 C 304.929 133.242,304.893 133.485,305.062 134.600 M305.889 140.000 C 306.011 141.650,306.176 143.075,306.256 143.167 C 306.542 143.497,306.313 138.977,305.994 138.000 C 305.801 137.408,305.758 138.224,305.889 140.000 M272.868 140.200 C 272.874 140.640,273.024 141.450,273.200 142.000 L 273.520 143.000 273.532 142.000 C 273.538 141.450,273.389 140.640,273.200 140.200 L 272.856 139.400 272.868 140.200 M273.750 147.800 C 273.751 150.220,273.816 151.158,273.896 149.885 C 273.976 148.612,273.975 146.632,273.894 145.485 C 273.814 144.338,273.749 145.380,273.750 147.800 M306.531 147.800 C 306.533 149.340,306.605 149.921,306.692 149.091 C 306.779 148.261,306.777 147.001,306.689 146.291 C 306.600 145.581,306.529 146.260,306.531 147.800 M181.400 147.587 C 180.740 147.747,182.000 147.792,184.200 147.685 C 186.400 147.579,188.275 147.426,188.367 147.346 C 188.670 147.080,182.622 147.289,181.400 147.587 M192.033 147.345 C 192.125 147.425,194.000 147.587,196.200 147.706 C 198.863 147.851,199.665 147.810,198.600 147.585 C 197.034 147.253,191.704 147.059,192.033 147.345 M176.400 148.400 L 175.400 148.720 176.400 148.713 C 176.950 148.709,177.940 148.568,178.600 148.400 L 179.800 148.095 178.600 148.087 C 177.940 148.083,176.950 148.224,176.400 148.400 M201.600 148.400 C 202.150 148.576,202.960 148.726,203.400 148.732 L 204.200 148.744 203.400 148.400 C 202.960 148.211,202.150 148.062,201.600 148.068 L 200.600 148.080 201.600 148.400 M173.200 149.200 C 172.405 149.714,173.404 149.714,174.600 149.200 L 175.400 148.856 174.600 148.834 C 174.160 148.822,173.530 148.987,173.200 149.200 M205.200 149.200 C 206.568 149.638,207.619 149.638,206.600 149.200 C 206.160 149.011,205.440 148.862,205.000 148.868 C 204.357 148.877,204.396 148.943,205.200 149.200 M170.400 150.000 C 169.605 150.514,170.604 150.514,171.800 150.000 L 172.600 149.656 171.800 149.634 C 171.360 149.622,170.730 149.787,170.400 150.000 M208.200 150.000 C 209.396 150.514,210.395 150.514,209.600 150.000 C 209.270 149.787,208.640 149.622,208.200 149.634 L 207.400 149.656 208.200 150.000 M167.800 150.800 C 167.508 151.273,167.899 151.273,169.000 150.800 C 169.771 150.469,169.769 150.455,168.924 150.428 C 168.442 150.413,167.936 150.580,167.800 150.800 M272.978 154.578 C 272.827 155.381,272.794 156.127,272.904 156.237 C 273.014 156.347,273.227 155.781,273.378 154.978 C 273.528 154.175,273.562 153.428,273.452 153.318 C 273.342 153.208,273.128 153.775,272.978 154.578 M305.864 155.750 C 305.701 157.263,305.650 158.583,305.751 158.684 C 306.014 158.947,306.510 154.650,306.319 153.753 C 306.231 153.339,306.026 154.238,305.864 155.750 M219.800 154.477 C 222.572 155.935,229.270 160.397,232.700 163.071 C 234.515 164.486,235.991 165.499,235.980 165.322 C 235.916 164.275,219.897 153.540,218.516 153.618 C 218.342 153.627,218.920 154.014,219.800 154.477 M154.144 157.547 C 149.589 160.564,143.400 165.771,141.415 168.257 C 140.305 169.647,140.879 169.209,143.431 166.720 C 147.696 162.562,151.110 159.811,155.070 157.343 C 157.684 155.714,158.349 155.200,157.844 155.200 C 157.758 155.200,156.093 156.256,154.144 157.547 M305.050 160.850 C 304.717 162.517,305.040 162.840,305.400 161.200 C 305.552 160.509,305.593 159.859,305.491 159.758 C 305.389 159.656,305.191 160.147,305.050 160.850 M270.041 162.910 C 269.593 163.893,268.412 165.936,267.416 167.449 C 266.391 169.007,266.094 169.637,266.731 168.902 C 268.147 167.267,271.382 161.649,271.081 161.347 C 270.957 161.223,270.489 161.927,270.041 162.910 M304.250 164.450 C 303.917 166.117,304.240 166.440,304.600 164.800 C 304.752 164.109,304.793 163.459,304.691 163.358 C 304.589 163.256,304.391 163.747,304.250 164.450 M236.503 165.829 C 236.644 166.065,238.119 167.323,239.780 168.624 C 243.413 171.470,243.380 170.942,240.178 175.043 C 238.736 176.889,237.746 178.400,237.978 178.400 C 238.210 178.400,238.401 178.265,238.403 178.100 C 238.404 177.935,239.483 176.450,240.800 174.800 C 243.766 171.083,243.788 171.359,240.300 168.579 C 236.330 165.414,236.198 165.319,236.503 165.829 M303.400 167.200 C 303.250 167.673,303.217 168.150,303.327 168.260 C 303.437 168.370,303.650 168.073,303.800 167.600 C 303.950 167.127,303.983 166.650,303.873 166.540 C 303.763 166.430,303.550 166.727,303.400 167.200 M138.087 172.216 C 136.390 174.523,136.683 174.514,138.579 172.200 C 139.390 171.210,139.907 170.407,139.727 170.416 C 139.547 170.424,138.809 171.234,138.087 172.216 M262.979 173.300 C 259.872 177.198,259.727 177.397,260.211 177.108 C 260.689 176.823,265.715 170.400,265.461 170.400 C 265.367 170.400,264.250 171.705,262.979 173.300 M300.655 174.655 C 300.276 175.449,300.053 176.186,300.159 176.293 C 300.266 176.399,300.636 175.809,300.982 174.982 C 301.798 173.029,301.549 172.780,300.655 174.655 M134.877 176.263 C 134.149 177.260,133.731 177.966,133.948 177.832 C 134.592 177.434,136.896 174.398,136.534 174.425 C 136.350 174.438,135.605 175.265,134.877 176.263 M257.712 179.923 C 256.784 181.175,254.926 183.595,253.583 185.300 C 252.240 187.005,251.231 188.400,251.341 188.400 C 251.451 188.400,253.202 186.285,255.232 183.700 C 257.263 181.115,259.194 178.685,259.524 178.300 C 259.854 177.915,259.961 177.610,259.762 177.623 C 259.563 177.635,258.641 178.670,257.712 179.923 M132.744 179.100 C 131.475 180.632,131.019 181.342,131.481 181.065 C 131.993 180.758,133.769 178.400,133.489 178.400 C 133.398 178.400,133.063 178.715,132.744 179.100 M298.186 179.700 L 297.552 181.000 298.367 180.000 C 299.152 179.037,299.408 178.400,299.010 178.400 C 298.906 178.400,298.535 178.985,298.186 179.700 M235.949 180.500 C 235.224 181.435,234.018 182.965,233.267 183.900 C 232.517 184.835,231.995 185.600,232.107 185.600 C 232.218 185.600,233.350 184.295,234.621 182.700 C 237.721 178.811,237.729 178.800,237.483 178.800 C 237.364 178.800,236.674 179.565,235.949 180.500 M188.905 179.887 C 189.514 179.979,190.414 179.977,190.905 179.882 C 191.397 179.787,190.900 179.711,189.800 179.714 C 188.700 179.717,188.297 179.795,188.905 179.887 M183.200 180.400 L 182.200 180.720 183.200 180.720 C 183.750 180.720,184.650 180.576,185.200 180.400 L 186.200 180.080 185.200 180.080 C 184.650 180.080,183.750 180.224,183.200 180.400 M193.233 180.146 C 193.325 180.226,194.390 180.394,195.600 180.519 C 197.020 180.666,197.446 180.629,196.800 180.413 C 195.809 180.083,192.913 179.865,193.233 180.146 M198.400 181.200 C 198.730 181.413,199.360 181.578,199.800 181.566 L 200.600 181.544 199.800 181.200 C 198.604 180.686,197.605 180.686,198.400 181.200 M295.110 184.625 C 293.860 186.481,292.964 187.996,293.118 187.991 C 293.454 187.980,297.717 181.583,297.520 181.386 C 297.445 181.311,296.360 182.769,295.110 184.625 M129.287 183.416 C 127.590 185.723,127.883 185.714,129.779 183.400 C 130.590 182.410,131.107 181.607,130.927 181.616 C 130.747 181.624,130.009 182.434,129.287 183.416 M177.000 182.378 C 176.120 182.795,175.580 183.136,175.800 183.138 C 176.346 183.142,179.502 181.664,179.000 181.640 C 178.780 181.630,177.880 181.962,177.000 182.378 M202.800 182.576 C 202.800 182.678,203.475 183.074,204.300 183.455 C 206.802 184.610,210.003 186.741,214.000 189.913 C 218.990 193.873,218.800 193.731,218.800 193.475 C 218.800 193.107,211.199 187.201,208.295 185.314 C 205.706 183.630,202.800 182.182,202.800 182.576 M171.697 185.133 C 169.560 186.551,164.694 190.828,164.940 191.073 C 165.040 191.174,166.085 190.325,167.261 189.187 C 168.438 188.050,170.345 186.481,171.500 185.703 C 173.325 184.472,173.886 183.995,173.500 184.002 C 173.445 184.003,172.634 184.512,171.697 185.133 M126.042 187.525 C 125.149 188.757,124.992 189.126,125.585 188.600 C 126.722 187.591,128.162 185.592,127.727 185.625 C 127.547 185.638,126.789 186.493,126.042 187.525 M227.554 191.200 C 222.919 197.099,223.314 196.875,220.967 194.952 C 219.995 194.155,219.207 193.660,219.216 193.852 C 219.238 194.344,222.659 196.805,223.283 196.777 C 223.567 196.765,224.559 195.730,225.488 194.477 C 226.416 193.225,228.274 190.805,229.617 189.100 C 230.960 187.395,231.964 186.000,231.849 186.000 C 231.734 186.000,229.802 188.340,227.554 191.200 M291.149 190.100 C 290.424 191.035,289.218 192.565,288.467 193.500 C 287.717 194.435,287.260 195.190,287.452 195.177 C 287.643 195.165,288.610 194.065,289.600 192.734 C 290.590 191.402,291.730 189.882,292.133 189.356 C 292.537 188.830,292.777 188.400,292.667 188.400 C 292.557 188.400,291.874 189.165,291.149 190.100 M248.579 191.700 C 245.472 195.598,245.327 195.797,245.811 195.508 C 246.289 195.223,251.315 188.800,251.061 188.800 C 250.967 188.800,249.850 190.105,248.579 191.700 M123.944 190.300 C 122.675 191.832,122.219 192.542,122.681 192.265 C 123.193 191.958,124.969 189.600,124.689 189.600 C 124.598 189.600,124.263 189.915,123.944 190.300 M163.546 192.700 C 161.512 194.929,158.343 199.200,158.723 199.200 C 158.938 199.200,159.201 198.975,159.307 198.700 C 159.413 198.425,160.700 196.715,162.166 194.900 C 164.825 191.608,165.448 190.615,163.546 192.700 M120.477 194.663 C 119.749 195.660,119.331 196.366,119.548 196.232 C 120.192 195.834,122.496 192.798,122.134 192.825 C 121.950 192.838,121.205 193.665,120.477 194.663 M285.585 197.218 C 284.880 198.109,284.370 198.899,284.452 198.974 C 284.533 199.050,285.191 198.322,285.913 197.356 C 287.562 195.150,287.308 195.043,285.585 197.218 M241.600 200.459 C 236.783 206.706,236.713 206.800,236.918 206.800 C 237.020 206.800,238.422 205.135,240.033 203.100 C 241.644 201.065,243.577 198.635,244.329 197.700 C 245.081 196.765,245.540 196.011,245.348 196.025 C 245.157 196.039,243.470 198.035,241.600 200.459 M116.579 199.700 C 113.472 203.598,113.327 203.797,113.811 203.508 C 114.289 203.223,119.315 196.800,119.061 196.800 C 118.967 196.800,117.850 198.105,116.579 199.700 M156.749 201.300 C 156.024 202.235,154.818 203.765,154.067 204.700 C 153.317 205.635,152.795 206.400,152.907 206.400 C 153.018 206.400,154.150 205.095,155.421 203.500 C 158.521 199.611,158.529 199.600,158.283 199.600 C 158.164 199.600,157.474 200.365,156.749 201.300 M283.144 200.300 C 281.875 201.832,281.419 202.542,281.881 202.265 C 282.393 201.958,284.169 199.600,283.889 199.600 C 283.798 199.600,283.463 199.915,283.144 200.300 M279.860 204.493 C 279.086 205.425,278.531 206.265,278.627 206.360 C 278.722 206.455,278.847 206.458,278.904 206.367 C 278.961 206.275,279.600 205.435,280.323 204.500 C 282.025 202.299,281.686 202.295,279.860 204.493 M174.795 205.477 C 172.370 208.554,171.591 209.816,173.473 207.617 C 174.313 206.636,175.474 205.294,176.053 204.633 L 177.105 203.433 178.553 204.537 C 179.349 205.144,179.999 205.497,179.997 205.320 C 179.994 204.938,177.513 203.200,176.970 203.200 C 176.761 203.200,175.782 204.225,174.795 205.477 M111.677 205.863 C 110.949 206.860,110.531 207.566,110.748 207.432 C 111.392 207.034,113.696 203.998,113.334 204.025 C 113.150 204.038,112.405 204.865,111.677 205.863 M180.400 205.747 C 180.400 207.246,197.811 218.815,199.283 218.295 C 199.568 218.195,199.132 217.924,198.316 217.693 C 195.937 217.020,190.834 213.781,185.736 209.707 C 180.622 205.621,180.400 205.456,180.400 205.747 M151.759 207.700 C 149.872 209.877,149.498 210.399,149.838 210.384 C 150.037 210.376,150.791 209.566,151.513 208.584 C 152.915 206.678,153.043 206.219,151.759 207.700 M276.621 208.600 C 275.810 209.590,275.293 210.393,275.473 210.384 C 275.799 210.369,278.574 206.800,278.261 206.800 C 278.170 206.800,277.433 207.610,276.621 208.600 M236.000 207.531 C 236.000 208.757,228.343 214.914,224.867 216.484 C 223.913 216.915,223.221 217.354,223.327 217.460 C 223.692 217.825,227.505 215.635,230.652 213.252 C 233.706 210.941,237.271 207.200,236.420 207.200 C 236.189 207.200,236.000 207.349,236.000 207.531 M108.726 209.700 C 106.960 211.891,105.493 214.000,105.735 214.000 C 105.840 214.000,106.563 213.145,107.342 212.100 C 108.121 211.055,109.143 209.705,109.613 209.100 C 110.994 207.321,110.224 207.842,108.726 209.700 M169.600 212.066 C 168.610 213.398,167.444 214.954,167.008 215.524 C 166.572 216.094,166.397 216.449,166.619 216.312 C 167.251 215.922,172.069 209.597,171.716 209.623 C 171.542 209.635,170.590 210.735,169.600 212.066 M147.949 212.500 C 147.224 213.435,146.018 214.965,145.267 215.900 C 144.517 216.835,144.060 217.590,144.252 217.577 C 144.443 217.565,145.410 216.465,146.400 215.134 C 147.390 213.802,148.530 212.282,148.933 211.756 C 149.337 211.230,149.577 210.800,149.467 210.800 C 149.357 210.800,148.674 211.565,147.949 212.500 M274.344 211.500 C 273.075 213.032,272.619 213.742,273.081 213.465 C 273.593 213.158,275.369 210.800,275.089 210.800 C 274.998 210.800,274.663 211.115,274.344 211.500 M271.060 215.693 C 270.286 216.625,269.731 217.465,269.827 217.560 C 269.922 217.655,270.047 217.658,270.104 217.567 C 270.161 217.475,270.800 216.635,271.523 215.700 C 273.225 213.499,272.886 213.495,271.060 215.693 M104.207 215.826 C 103.609 216.611,103.201 217.334,103.301 217.434 C 103.401 217.534,103.962 216.893,104.547 216.008 C 105.865 214.016,105.668 213.911,104.207 215.826 M164.443 218.674 C 163.697 219.688,163.278 220.399,163.514 220.253 C 164.190 219.836,166.504 216.798,166.134 216.816 C 165.950 216.824,165.189 217.661,164.443 218.674 M101.511 220.300 C 100.091 222.760,99.187 224.662,99.221 225.119 C 99.233 225.273,99.647 224.590,100.141 223.600 C 100.635 222.610,101.543 220.945,102.158 219.900 C 102.773 218.855,103.178 218.000,103.057 218.000 C 102.937 218.000,102.241 219.035,101.511 220.300 M139.465 223.300 C 137.163 226.215,135.356 228.679,135.449 228.776 C 135.542 228.873,135.915 228.528,136.278 228.010 C 136.640 227.493,138.373 225.253,140.127 223.034 C 141.882 220.816,143.493 218.775,143.708 218.500 C 143.922 218.225,143.997 218.000,143.874 218.000 C 143.751 218.000,141.767 220.385,139.465 223.300 M267.821 219.800 C 267.010 220.790,266.493 221.593,266.673 221.584 C 266.999 221.569,269.774 218.000,269.461 218.000 C 269.370 218.000,268.633 218.810,267.821 219.800 M218.800 218.800 C 218.005 219.314,219.004 219.314,220.200 218.800 L 221.000 218.456 220.200 218.434 C 219.760 218.422,219.130 218.587,218.800 218.800 M203.400 219.600 C 203.840 219.789,204.650 219.938,205.200 219.932 L 206.200 219.920 205.200 219.600 C 204.650 219.424,203.840 219.274,203.400 219.268 L 202.600 219.256 203.400 219.600 M215.200 219.600 C 213.856 220.031,215.308 220.031,217.000 219.600 C 218.078 219.326,218.098 219.294,217.200 219.287 C 216.650 219.283,215.750 219.424,215.200 219.600 M208.100 220.291 C 208.925 220.378,210.275 220.378,211.100 220.291 C 211.925 220.205,211.250 220.134,209.600 220.134 C 207.950 220.134,207.275 220.205,208.100 220.291 M160.579 223.700 C 157.472 227.598,157.327 227.797,157.811 227.508 C 158.289 227.223,163.315 220.800,163.061 220.800 C 162.967 220.800,161.850 222.105,160.579 223.700 M263.360 225.500 C 261.872 227.425,258.752 230.972,256.427 233.382 C 254.102 235.792,253.281 236.782,254.602 235.582 C 257.573 232.883,259.901 230.341,263.196 226.200 C 266.506 222.039,266.535 222.000,266.282 222.000 C 266.164 222.000,264.849 223.575,263.360 225.500 M97.445 229.050 C 97.090 230.091,96.813 231.135,96.829 231.371 C 96.845 231.607,97.205 230.824,97.628 229.632 C 98.051 228.440,98.328 227.395,98.244 227.310 C 98.159 227.226,97.800 228.008,97.445 229.050 M156.800 228.520 C 156.800 228.960,161.462 232.772,165.140 235.340 L 166.200 236.081 165.173 235.140 C 164.609 234.623,162.577 232.978,160.659 231.485 C 158.740 229.993,157.278 228.598,157.409 228.385 C 157.540 228.173,157.457 228.000,157.224 228.000 C 156.991 228.000,156.800 228.234,156.800 228.520 M134.344 229.900 C 133.075 231.432,132.619 232.142,133.081 231.865 C 133.593 231.558,135.369 229.200,135.089 229.200 C 134.998 229.200,134.663 229.515,134.344 229.900 M132.091 232.900 C 130.782 234.509,128.485 239.042,129.205 238.597 C 129.422 238.463,129.600 238.180,129.600 237.969 C 129.600 237.758,130.309 236.419,131.175 234.993 C 132.669 232.535,132.995 231.790,132.091 232.900 M95.400 235.600 C 95.248 236.291,95.207 236.941,95.309 237.042 C 95.411 237.144,95.609 236.653,95.750 235.950 C 96.083 234.283,95.760 233.960,95.400 235.600 M167.600 237.209 C 169.138 238.589,172.400 240.939,172.400 240.668 C 172.400 240.574,171.005 239.475,169.300 238.225 C 167.595 236.976,166.830 236.519,167.600 237.209 M251.241 238.150 C 250.981 238.463,249.336 239.660,247.584 240.810 C 245.833 241.960,244.400 242.974,244.400 243.065 C 244.400 243.371,246.193 242.299,248.779 240.447 C 250.197 239.431,251.542 238.475,251.767 238.322 C 251.992 238.169,252.073 237.939,251.945 237.812 C 251.818 237.685,251.501 237.837,251.241 238.150 M94.600 239.200 C 94.448 239.891,94.407 240.541,94.509 240.642 C 94.611 240.744,94.809 240.253,94.950 239.550 C 95.283 237.883,94.960 237.560,94.600 239.200 M127.800 241.200 C 127.425 242.329,127.204 243.337,127.308 243.441 C 127.412 243.546,127.801 242.704,128.171 241.571 C 128.542 240.439,128.763 239.430,128.663 239.330 C 128.563 239.230,128.175 240.071,127.800 241.200 M173.400 241.516 C 174.163 242.252,179.278 245.243,178.743 244.641 C 178.601 244.482,177.161 243.541,175.543 242.549 C 173.924 241.557,172.960 241.092,173.400 241.516 M93.881 243.756 C 93.727 244.832,93.624 246.542,93.653 247.556 C 93.693 248.948,93.791 248.616,94.053 246.200 C 94.443 242.596,94.314 240.749,93.881 243.756 M241.000 244.824 C 237.920 246.544,237.720 246.968,240.713 245.432 C 242.460 244.536,244.463 243.202,244.000 243.243 C 243.890 243.253,242.540 243.965,241.000 244.824 M126.578 245.778 C 126.427 246.581,126.394 247.327,126.504 247.437 C 126.614 247.547,126.827 246.981,126.978 246.178 C 127.128 245.375,127.162 244.628,127.052 244.518 C 126.942 244.408,126.728 244.975,126.578 245.778 M181.020 245.943 C 181.674 246.535,189.280 249.640,189.717 249.494 C 189.946 249.418,188.978 248.938,187.566 248.427 C 186.155 247.916,184.151 247.070,183.113 246.549 C 181.178 245.576,180.347 245.335,181.020 245.943 M236.200 247.178 C 235.320 247.595,234.797 247.950,235.039 247.968 C 235.528 248.004,238.000 246.838,238.000 246.571 C 238.000 246.330,237.976 246.338,236.200 247.178 M232.000 248.698 C 231.010 249.048,230.395 249.398,230.634 249.478 C 230.873 249.558,231.863 249.270,232.834 248.840 C 234.959 247.897,234.494 247.818,232.000 248.698 M126.137 251.800 C 126.139 253.560,126.209 254.230,126.293 253.289 C 126.378 252.349,126.377 250.909,126.291 250.089 C 126.205 249.270,126.136 250.040,126.137 251.800 M191.000 250.000 C 191.440 250.189,192.070 250.344,192.400 250.344 C 192.778 250.344,192.704 250.217,192.200 250.000 C 191.760 249.811,191.130 249.656,190.800 249.656 C 190.422 249.656,190.496 249.783,191.000 250.000 M228.200 250.000 L 227.400 250.344 228.200 250.366 C 228.640 250.378,229.270 250.213,229.600 250.000 C 230.395 249.486,229.396 249.486,228.200 250.000 M193.600 250.794 C 193.930 251.011,194.635 251.191,195.167 251.194 C 196.451 251.202,196.125 250.975,194.400 250.658 C 193.415 250.477,193.178 250.518,193.600 250.794 M224.800 250.800 L 223.800 251.120 224.800 251.132 C 225.350 251.138,226.160 250.989,226.600 250.800 L 227.400 250.456 226.600 250.468 C 226.160 250.474,225.350 250.624,224.800 250.800 M197.400 251.600 C 197.840 251.789,198.740 251.935,199.400 251.925 L 200.600 251.905 199.400 251.600 C 198.740 251.432,197.840 251.286,197.400 251.275 L 196.600 251.256 197.400 251.600 M221.000 251.600 L 219.800 251.905 221.000 251.925 C 221.660 251.935,222.560 251.789,223.000 251.600 L 223.800 251.256 223.000 251.275 C 222.560 251.286,221.660 251.432,221.000 251.600 M203.000 252.404 C 204.569 252.747,209.494 252.944,209.167 252.651 C 209.075 252.569,207.290 252.401,205.200 252.278 C 202.559 252.122,201.888 252.161,203.000 252.404 M213.800 252.400 L 211.400 252.666 213.600 252.710 C 214.810 252.734,216.520 252.605,217.400 252.423 L 219.000 252.092 217.600 252.113 C 216.830 252.125,215.120 252.254,213.800 252.400 M93.640 257.433 C 93.662 258.735,93.825 260.250,94.002 260.800 C 94.187 261.377,94.231 260.446,94.106 258.600 C 93.846 254.778,93.584 254.122,93.640 257.433 M126.480 257.000 C 126.480 257.440,126.624 258.250,126.800 258.800 C 127.054 259.592,127.120 259.633,127.120 259.000 C 127.120 258.560,126.976 257.750,126.800 257.200 C 126.546 256.408,126.480 256.367,126.480 257.000 M127.234 260.800 C 127.246 261.130,127.411 261.760,127.600 262.200 L 127.944 263.000 127.966 262.200 C 127.978 261.760,127.813 261.130,127.600 260.800 C 127.255 260.267,127.215 260.267,127.234 260.800 M94.487 263.400 C 94.483 264.060,94.624 265.050,94.800 265.600 L 95.120 266.600 95.113 265.600 C 95.109 265.050,94.968 264.060,94.800 263.400 L 94.495 262.200 94.487 263.400 M128.017 263.500 C 128.039 263.901,129.562 266.670,129.583 266.349 C 129.611 265.935,128.405 263.200,128.195 263.200 C 128.088 263.200,128.008 263.335,128.017 263.500 M95.234 267.400 C 95.222 267.840,95.387 268.470,95.600 268.800 C 96.114 269.595,96.114 268.596,95.600 267.400 L 95.256 266.600 95.234 267.400 M130.840 269.300 C 132.548 272.584,138.842 278.627,142.400 280.400 C 143.897 281.145,142.951 280.363,139.582 278.069 C 136.570 276.017,133.934 273.313,131.815 270.100 C 130.608 268.271,130.078 267.836,130.840 269.300 M96.006 270.233 C 96.009 270.655,96.195 271.270,96.418 271.600 C 96.715 272.038,96.752 271.876,96.556 271.000 C 96.227 269.529,95.998 269.210,96.006 270.233 M183.578 274.236 C 182.021 275.835,179.815 277.637,176.386 280.112 L 175.400 280.823 176.400 280.354 C 177.904 279.648,180.318 277.739,183.037 275.107 L 185.474 272.748 191.037 277.126 C 194.097 279.534,196.679 281.432,196.776 281.343 C 196.873 281.254,196.528 280.885,196.010 280.522 C 195.493 280.160,193.337 278.483,191.221 276.797 C 185.062 271.891,185.665 272.093,183.578 274.236 M99.200 278.943 C 99.200 279.378,101.987 284.800,102.210 284.800 C 102.320 284.800,101.757 283.495,100.958 281.900 C 99.460 278.907,99.200 278.470,99.200 278.943 M143.600 280.979 C 143.600 281.089,144.140 281.459,144.800 281.800 C 145.460 282.141,146.000 282.331,146.000 282.221 C 146.000 282.111,145.460 281.741,144.800 281.400 C 144.140 281.059,143.600 280.869,143.600 280.979 M173.470 281.479 C 172.848 281.805,172.426 282.160,172.533 282.266 C 172.742 282.476,175.200 281.300,175.200 280.990 C 175.200 280.692,174.694 280.835,173.470 281.479 M197.436 281.935 C 198.271 282.887,207.801 290.312,207.976 290.148 C 208.073 290.056,207.728 289.685,207.210 289.322 C 206.693 288.960,204.453 287.227,202.234 285.473 C 197.515 281.741,196.807 281.219,197.436 281.935 M149.600 283.600 C 149.930 283.813,150.470 283.988,150.800 283.988 C 151.333 283.988,151.333 283.945,150.800 283.600 C 150.470 283.387,149.930 283.212,149.600 283.212 C 149.067 283.212,149.067 283.255,149.600 283.600 M168.000 283.600 C 167.205 284.114,168.204 284.114,169.400 283.600 L 170.200 283.256 169.400 283.234 C 168.960 283.222,168.330 283.387,168.000 283.600 M152.400 284.400 C 152.950 284.576,153.760 284.726,154.200 284.732 L 155.000 284.744 154.200 284.400 C 153.760 284.211,152.950 284.062,152.400 284.068 L 151.400 284.080 152.400 284.400 M164.000 284.400 L 163.000 284.720 164.000 284.713 C 164.550 284.709,165.540 284.568,166.200 284.400 L 167.400 284.095 166.200 284.087 C 165.540 284.083,164.550 284.224,164.000 284.400 M157.300 285.091 C 158.125 285.178,159.475 285.178,160.300 285.091 C 161.125 285.005,160.450 284.934,158.800 284.934 C 157.150 284.934,156.475 285.005,157.300 285.091 M102.971 286.344 C 104.856 289.988,111.383 297.625,115.400 300.885 C 116.500 301.778,115.921 301.124,114.113 299.432 C 110.774 296.306,106.460 291.107,104.047 287.300 C 102.606 285.025,102.020 284.505,102.971 286.344 M209.300 291.344 C 210.736 292.672,210.721 292.746,208.523 295.257 C 205.544 298.659,204.897 299.548,206.821 297.593 C 211.189 293.156,211.465 292.496,209.500 291.191 L 208.200 290.327 209.300 291.344 M202.037 301.650 C 200.627 302.952,197.610 305.211,195.333 306.671 C 193.056 308.131,191.269 309.402,191.361 309.495 C 191.655 309.788,200.917 303.316,202.947 301.399 C 204.018 300.388,204.828 299.498,204.747 299.422 C 204.666 299.346,203.446 300.349,202.037 301.650 M117.615 302.689 C 117.624 302.860,118.389 303.540,119.315 304.200 C 124.374 307.802,124.896 307.924,120.300 304.430 C 118.815 303.301,117.607 302.518,117.615 302.689 M126.000 308.767 C 126.963 309.552,127.600 309.808,127.600 309.410 C 127.600 309.306,127.015 308.935,126.300 308.586 L 125.000 307.952 126.000 308.767 M186.600 311.571 C 185.280 312.213,184.330 312.752,184.488 312.769 C 184.892 312.812,189.200 310.818,189.200 310.588 C 189.200 310.307,189.185 310.312,186.600 311.571 M137.844 314.182 C 138.528 314.498,139.608 314.859,140.244 314.984 C 141.233 315.179,141.198 315.133,140.000 314.663 C 137.840 313.816,136.313 313.476,137.844 314.182 M180.400 314.000 C 179.867 314.345,179.867 314.388,180.400 314.388 C 180.730 314.388,181.270 314.213,181.600 314.000 C 182.133 313.655,182.133 313.612,181.600 313.612 C 181.270 313.612,180.730 313.787,180.400 314.000 M142.000 315.600 C 142.330 315.813,142.960 315.978,143.400 315.966 L 144.200 315.944 143.400 315.600 C 142.204 315.086,141.205 315.086,142.000 315.600 M174.800 315.600 L 173.800 315.920 174.800 315.932 C 175.350 315.938,176.160 315.789,176.600 315.600 L 177.400 315.256 176.600 315.268 C 176.160 315.274,175.350 315.424,174.800 315.600 M145.400 316.400 C 145.840 316.589,146.650 316.738,147.200 316.732 L 148.200 316.720 147.200 316.400 C 146.650 316.224,145.840 316.074,145.400 316.068 L 144.600 316.056 145.400 316.400 M171.200 316.400 L 170.200 316.720 171.200 316.732 C 171.750 316.738,172.560 316.589,173.000 316.400 L 173.800 316.056 173.000 316.068 C 172.560 316.074,171.750 316.224,171.200 316.400 M150.600 317.215 C 152.166 317.547,157.496 317.741,157.167 317.455 C 157.075 317.375,155.200 317.213,153.000 317.094 C 150.337 316.949,149.535 316.990,150.600 317.215 M165.200 317.200 L 163.400 317.480 165.000 317.517 C 165.880 317.537,167.320 317.405,168.200 317.223 L 169.800 316.892 168.400 316.906 C 167.630 316.914,166.190 317.046,165.200 317.200 " stroke="none" fill="#9bd5fc" fill-rule="evenodd"></path><path id="path4" d="M236.905 81.887 C 237.514 81.979,238.414 81.977,238.905 81.882 C 239.397 81.787,238.900 81.711,237.800 81.714 C 236.700 81.717,236.297 81.795,236.905 81.887 M243.700 81.887 C 244.305 81.978,245.295 81.978,245.900 81.887 C 246.505 81.795,246.010 81.720,244.800 81.720 C 243.590 81.720,243.095 81.795,243.700 81.887 M232.105 82.287 C 232.714 82.379,233.614 82.377,234.105 82.282 C 234.597 82.187,234.100 82.111,233.000 82.114 C 231.900 82.117,231.497 82.195,232.105 82.287 M248.100 82.287 C 248.705 82.378,249.695 82.378,250.300 82.287 C 250.905 82.195,250.410 82.120,249.200 82.120 C 247.990 82.120,247.495 82.195,248.100 82.287 M227.105 83.083 C 227.602 83.179,228.322 83.175,228.705 83.075 C 229.087 82.975,228.680 82.896,227.800 82.901 C 226.920 82.905,226.607 82.987,227.105 83.083 M224.400 83.600 C 223.576 83.864,223.541 83.926,224.200 83.954 C 224.640 83.973,225.270 83.813,225.600 83.600 C 226.301 83.147,225.814 83.147,224.400 83.600 M255.800 83.546 C 256.971 84.034,259.526 84.458,258.800 84.044 C 258.470 83.856,257.480 83.592,256.600 83.458 C 255.591 83.303,255.295 83.336,255.800 83.546 M221.600 84.400 C 220.776 84.664,220.741 84.726,221.400 84.754 C 221.840 84.773,222.470 84.613,222.800 84.400 C 223.501 83.947,223.014 83.947,221.600 84.400 M262.800 85.476 C 265.714 86.748,268.185 87.643,267.800 87.288 C 267.349 86.873,262.153 84.782,261.696 84.833 C 261.533 84.851,262.030 85.140,262.800 85.476 M211.400 88.371 C 210.080 89.013,209.113 89.552,209.252 89.569 C 209.606 89.613,214.000 87.578,214.000 87.371 C 214.000 87.109,213.961 87.124,211.400 88.371 M268.433 87.752 C 268.841 88.124,272.800 89.993,272.800 89.813 C 272.800 89.588,268.980 87.600,268.547 87.600 C 268.393 87.600,268.342 87.668,268.433 87.752 M206.395 91.054 C 204.012 92.631,202.649 93.810,204.600 92.606 C 207.875 90.583,209.215 89.600,208.695 89.600 C 208.637 89.600,207.602 90.254,206.395 91.054 M275.400 91.474 C 275.620 91.687,276.790 92.541,278.000 93.373 C 279.774 94.591,279.929 94.649,278.800 93.670 C 277.500 92.543,274.508 90.610,275.400 91.474 M201.585 94.429 L 200.200 95.658 201.700 94.581 C 203.026 93.630,203.457 93.200,203.085 93.200 C 203.022 93.200,202.347 93.753,201.585 94.429 M197.000 98.104 C 195.460 99.477,193.394 101.500,192.409 102.600 C 191.424 103.700,192.414 102.898,194.609 100.818 C 196.804 98.738,198.955 96.713,199.389 96.318 C 199.823 95.923,200.093 95.602,199.989 95.604 C 199.885 95.606,198.540 96.731,197.000 98.104 M284.000 97.725 C 284.000 97.794,284.585 98.379,285.300 99.025 L 286.600 100.200 285.425 98.900 C 284.330 97.688,284.000 97.416,284.000 97.725 M288.840 102.311 C 290.028 103.692,291.902 105.974,293.005 107.382 C 295.374 110.409,296.109 111.150,294.805 109.200 C 293.644 107.464,290.338 103.530,288.249 101.400 C 287.386 100.520,287.652 100.930,288.840 102.311 M189.423 106.089 C 188.537 107.354,188.633 107.733,190.100 108.754 L 191.400 109.658 190.221 108.580 C 189.066 107.524,189.055 107.478,189.702 106.351 C 190.484 104.988,190.309 104.824,189.423 106.089 M296.209 111.826 C 296.581 112.501,297.241 113.491,297.676 114.026 L 298.467 115.000 297.791 113.774 C 297.419 113.099,296.759 112.109,296.324 111.574 L 295.533 110.600 296.209 111.826 M196.781 113.907 C 198.483 115.422,202.400 118.465,202.400 118.272 C 202.400 118.084,196.924 113.648,196.181 113.234 C 195.951 113.105,196.221 113.408,196.781 113.907 M238.713 115.495 C 239.876 115.576,241.676 115.576,242.713 115.493 C 243.751 115.411,242.800 115.345,240.600 115.346 C 238.400 115.347,237.551 115.414,238.713 115.495 M248.200 116.386 C 248.860 116.553,250.390 117.053,251.600 117.499 C 255.410 118.901,255.508 118.929,254.693 118.406 C 253.545 117.669,248.671 115.997,247.802 116.041 C 247.276 116.068,247.413 116.186,248.200 116.386 M230.800 116.800 C 229.976 117.064,229.941 117.126,230.600 117.154 C 231.040 117.173,231.670 117.013,232.000 116.800 C 232.701 116.347,232.214 116.347,230.800 116.800 M227.800 117.978 C 226.920 118.395,226.313 118.750,226.451 118.768 C 226.840 118.818,229.600 117.614,229.600 117.395 C 229.600 117.127,229.599 117.127,227.800 117.978 M224.326 119.614 C 223.515 120.042,222.746 120.564,222.616 120.773 C 222.487 120.983,223.195 120.699,224.191 120.143 C 225.186 119.587,226.000 119.057,226.000 118.966 C 226.000 118.734,225.972 118.744,224.326 119.614 M255.600 118.922 C 255.600 119.017,256.725 119.754,258.100 120.561 C 259.475 121.368,261.570 122.927,262.755 124.026 C 263.940 125.124,264.981 125.952,265.068 125.865 C 265.360 125.573,259.598 120.926,257.587 119.832 C 256.494 119.237,255.600 118.828,255.600 118.922 M301.913 122.619 C 302.284 123.620,302.639 124.282,302.703 124.091 C 302.831 123.706,301.693 120.800,301.414 120.800 C 301.317 120.800,301.542 121.619,301.913 122.619 M207.981 122.707 C 209.683 124.222,213.600 127.265,213.600 127.072 C 213.600 126.884,208.124 122.448,207.381 122.034 C 207.151 121.905,207.421 122.208,207.981 122.707 M217.594 125.006 C 215.914 126.701,214.799 127.532,214.405 127.383 C 213.915 127.196,213.897 127.250,214.308 127.665 C 214.720 128.080,215.363 127.630,217.705 125.288 C 219.293 123.700,220.499 122.400,220.385 122.400 C 220.271 122.400,219.014 123.573,217.594 125.006 M303.222 125.800 C 303.216 126.020,303.471 126.920,303.788 127.800 C 304.105 128.680,304.373 129.106,304.382 128.746 C 304.392 128.386,304.137 127.486,303.816 126.746 C 303.494 126.006,303.227 125.580,303.222 125.800 M266.483 128.010 C 267.207 129.006,268.123 130.266,268.517 130.810 C 269.207 131.762,269.207 131.749,268.517 130.461 C 268.123 129.724,267.207 128.464,266.483 127.661 L 265.166 126.200 266.483 128.010 M269.200 132.050 C 269.200 132.398,270.437 134.800,270.617 134.800 C 270.704 134.800,270.661 134.485,270.521 134.100 C 270.233 133.306,269.200 131.703,269.200 132.050 M305.701 135.000 C 305.705 135.880,305.787 136.193,305.883 135.695 C 305.979 135.198,305.975 134.478,305.875 134.095 C 305.775 133.713,305.696 134.120,305.701 135.000 M306.520 140.400 C 306.520 141.610,306.595 142.105,306.687 141.500 C 306.778 140.895,306.778 139.905,306.687 139.300 C 306.595 138.695,306.520 139.190,306.520 140.400 M272.268 140.200 C 272.571 142.177,272.802 142.514,272.794 140.967 C 272.791 140.325,272.616 139.530,272.405 139.200 C 272.145 138.791,272.101 139.110,272.268 140.200 M306.955 148.200 C 306.956 151.060,307.020 152.178,307.097 150.683 C 307.174 149.189,307.174 146.849,307.096 145.483 C 307.018 144.118,306.955 145.340,306.955 148.200 M273.346 147.800 C 273.347 150.000,273.414 150.849,273.495 149.687 C 273.576 148.524,273.576 146.724,273.493 145.687 C 273.411 144.649,273.345 145.600,273.346 147.800 M189.505 146.683 C 190.002 146.779,190.722 146.775,191.105 146.675 C 191.487 146.575,191.080 146.496,190.200 146.501 C 189.320 146.505,189.007 146.587,189.505 146.683 M183.111 147.093 C 184.051 147.178,185.491 147.177,186.311 147.091 C 187.130 147.005,186.360 146.936,184.600 146.937 C 182.840 146.939,182.170 147.009,183.111 147.093 M194.691 147.089 C 195.401 147.177,196.661 147.179,197.491 147.092 C 198.321 147.005,197.740 146.933,196.200 146.931 C 194.660 146.929,193.981 147.000,194.691 147.089 M177.505 147.883 C 178.002 147.979,178.722 147.975,179.105 147.875 C 179.487 147.775,179.080 147.696,178.200 147.701 C 177.320 147.705,177.007 147.787,177.505 147.883 M172.800 148.818 C 172.362 149.115,172.524 149.152,173.400 148.956 C 174.871 148.627,175.190 148.398,174.167 148.406 C 173.745 148.409,173.130 148.595,172.800 148.818 M170.000 149.618 C 169.562 149.915,169.724 149.952,170.600 149.756 C 172.071 149.427,172.390 149.198,171.367 149.206 C 170.945 149.209,170.330 149.395,170.000 149.618 M161.800 152.778 C 160.920 153.195,160.313 153.550,160.451 153.568 C 160.840 153.618,163.600 152.414,163.600 152.195 C 163.600 151.927,163.599 151.927,161.800 152.778 M216.400 152.158 C 216.400 152.270,217.075 152.671,217.900 153.048 C 218.725 153.426,219.535 153.805,219.700 153.891 C 219.865 153.977,220.000 153.955,220.000 153.842 C 220.000 153.730,219.325 153.329,218.500 152.952 C 217.675 152.574,216.865 152.195,216.700 152.109 C 216.535 152.023,216.400 152.045,216.400 152.158 M306.520 155.600 C 306.520 156.810,306.595 157.305,306.687 156.700 C 306.778 156.095,306.778 155.105,306.687 154.500 C 306.595 153.895,306.520 154.390,306.520 155.600 M220.800 154.421 C 221.842 155.130,223.600 156.028,223.600 155.850 C 223.600 155.628,220.839 153.998,220.477 154.006 C 220.325 154.009,220.470 154.196,220.800 154.421 M224.200 156.287 C 224.831 156.924,230.800 160.847,230.800 160.624 C 230.800 160.514,229.495 159.551,227.900 158.483 C 224.601 156.274,223.599 155.680,224.200 156.287 M271.275 158.857 C 270.811 160.217,270.587 161.165,270.776 160.964 C 271.210 160.507,272.481 156.748,272.273 156.540 C 272.188 156.455,271.739 157.498,271.275 158.857 M151.644 158.599 C 150.300 159.589,149.200 160.488,149.200 160.598 C 149.200 160.708,150.325 159.972,151.700 158.961 C 154.495 156.908,154.625 156.800,154.311 156.800 C 154.188 156.800,152.988 157.610,151.644 158.599 M305.300 162.059 C 304.613 165.032,304.718 165.901,305.440 163.216 C 305.762 162.015,305.975 160.777,305.913 160.464 C 305.851 160.151,305.575 160.869,305.300 162.059 M269.478 163.005 C 269.112 163.772,268.895 164.400,268.996 164.400 C 269.270 164.400,270.484 161.951,270.301 161.768 C 270.214 161.681,269.844 162.238,269.478 163.005 M234.400 163.584 C 235.170 164.270,236.880 165.650,238.200 166.649 C 239.520 167.648,239.970 167.903,239.200 167.216 C 238.430 166.530,236.720 165.150,235.400 164.151 C 234.080 163.152,233.630 162.897,234.400 163.584 M144.778 164.300 L 143.400 165.800 144.900 164.422 C 146.296 163.138,146.584 162.800,146.278 162.800 C 146.212 162.800,145.537 163.475,144.778 164.300 M267.316 166.732 C 266.611 167.760,265.650 169.140,265.180 169.800 L 264.327 171.000 265.387 169.800 C 266.803 168.197,268.912 165.179,268.738 165.004 C 268.661 164.927,268.021 165.705,267.316 166.732 M303.644 168.244 C 303.180 169.724,302.870 171.004,302.956 171.089 C 303.041 171.175,303.491 170.035,303.956 168.556 C 304.420 167.076,304.730 165.796,304.644 165.711 C 304.559 165.625,304.109 166.765,303.644 168.244 M140.975 168.100 L 139.800 169.400 141.100 168.225 C 142.312 167.130,142.584 166.800,142.275 166.800 C 142.206 166.800,141.621 167.385,140.975 168.100 M138.959 170.500 C 137.207 172.521,136.687 173.200,136.890 173.200 C 137.007 173.200,137.767 172.390,138.579 171.400 C 140.081 169.566,140.379 168.863,138.959 170.500 M260.966 175.100 C 257.997 178.787,256.504 180.831,257.972 179.200 C 259.681 177.301,262.895 173.200,262.675 173.200 C 262.577 173.200,261.808 174.055,260.966 175.100 M135.760 174.500 C 134.178 176.326,132.264 178.932,132.705 178.659 C 132.955 178.504,133.977 177.303,134.976 175.989 C 136.810 173.578,137.198 172.840,135.760 174.500 M238.966 177.500 C 235.997 181.187,234.504 183.231,235.972 181.600 C 237.681 179.701,240.895 175.600,240.675 175.600 C 240.577 175.600,239.808 176.455,238.966 177.500 M298.628 179.861 C 298.056 180.884,297.652 181.785,297.729 181.863 C 297.807 181.940,298.361 181.103,298.960 180.002 C 299.560 178.901,299.964 178.000,299.859 178.000 C 299.754 178.000,299.200 178.837,298.628 179.861 M130.400 181.300 C 128.736 183.421,128.305 184.164,129.520 182.819 C 130.677 181.539,132.107 179.600,131.894 179.600 C 131.806 179.600,131.134 180.365,130.400 181.300 M192.500 180.676 C 192.885 180.776,193.515 180.776,193.900 180.676 C 194.285 180.575,193.970 180.493,193.200 180.493 C 192.430 180.493,192.115 180.575,192.500 180.676 M182.021 181.179 C 181.646 181.416,182.070 181.465,183.221 181.318 C 184.199 181.192,185.075 181.025,185.167 180.945 C 185.542 180.619,182.555 180.840,182.021 181.179 M177.333 182.722 C 176.416 183.095,175.516 183.551,175.333 183.736 C 174.912 184.160,178.466 182.799,178.980 182.340 C 179.493 181.881,179.280 181.931,177.333 182.722 M296.023 184.300 C 295.291 185.345,295.031 185.897,295.446 185.527 C 296.171 184.880,297.799 182.400,297.500 182.400 C 297.420 182.400,296.755 183.255,296.023 184.300 M253.590 184.500 C 252.850 185.435,251.628 186.965,250.874 187.900 C 250.121 188.835,249.595 189.600,249.707 189.600 C 249.818 189.600,250.950 188.295,252.221 186.700 C 255.283 182.858,255.327 182.800,255.116 182.800 C 255.016 182.800,254.329 183.565,253.590 184.500 M173.200 184.836 C 172.536 185.379,172.469 185.515,173.000 185.240 C 174.305 184.566,175.028 184.012,174.600 184.015 C 174.380 184.017,173.750 184.386,173.200 184.836 M230.979 187.700 C 228.508 190.800,227.622 192.087,229.107 190.419 C 230.622 188.717,233.665 184.800,233.472 184.800 C 233.372 184.800,232.250 186.105,230.979 187.700 M207.400 185.465 C 208.422 186.433,210.933 188.071,210.327 187.374 C 209.957 186.948,209.057 186.259,208.327 185.843 C 207.597 185.427,207.180 185.257,207.400 185.465 M170.600 186.635 L 169.400 187.666 170.700 186.806 C 171.415 186.333,172.000 185.868,172.000 185.773 C 172.000 185.473,171.831 185.578,170.600 186.635 M123.365 190.273 C 121.844 192.182,120.348 194.117,120.041 194.573 C 119.011 196.096,120.490 194.427,123.206 191.000 C 126.484 186.864,126.531 186.800,126.314 186.800 C 126.212 186.800,124.885 188.363,123.365 190.273 M166.587 190.100 L 164.200 192.600 166.700 190.213 C 169.022 187.995,169.383 187.600,169.087 187.600 C 169.026 187.600,167.901 188.725,166.587 190.100 M292.800 188.800 C 292.330 189.460,292.036 190.000,292.146 190.000 C 292.256 190.000,292.730 189.460,293.200 188.800 C 293.670 188.140,293.964 187.600,293.854 187.600 C 293.744 187.600,293.270 188.140,292.800 188.800 M216.000 191.984 C 216.770 192.670,218.480 194.050,219.800 195.049 C 221.120 196.048,221.570 196.303,220.800 195.616 C 220.030 194.930,218.320 193.550,217.000 192.551 C 215.680 191.552,215.230 191.297,216.000 191.984 M290.551 191.700 C 289.370 193.048,288.680 194.000,288.884 194.000 C 288.984 194.000,289.645 193.280,290.352 192.400 C 291.725 190.692,291.864 190.201,290.551 191.700 M246.566 193.500 C 243.597 197.187,242.104 199.231,243.572 197.600 C 245.281 195.701,248.495 191.600,248.275 191.600 C 248.177 191.600,247.408 192.455,246.566 193.500 M285.200 198.500 C 283.536 200.621,283.105 201.364,284.320 200.019 C 285.477 198.739,286.907 196.800,286.694 196.800 C 286.606 196.800,285.934 197.565,285.200 198.500 M115.427 200.500 C 114.386 201.875,114.103 202.370,114.797 201.600 C 116.245 199.993,117.734 198.000,117.486 198.000 C 117.394 198.000,116.467 199.125,115.427 200.500 M159.132 199.100 C 157.316 201.249,155.457 203.721,155.821 203.502 C 156.302 203.214,160.140 198.400,159.889 198.400 C 159.798 198.400,159.458 198.715,159.132 199.100 M281.751 202.900 C 280.570 204.248,279.880 205.200,280.084 205.200 C 280.184 205.200,280.845 204.480,281.552 203.600 C 282.925 201.892,283.064 201.401,281.751 202.900 M176.562 202.862 C 176.381 203.154,176.452 203.215,176.755 203.028 C 177.036 202.854,177.971 203.324,179.017 204.166 C 179.998 204.955,181.610 206.252,182.600 207.048 C 183.590 207.845,184.400 208.401,184.400 208.284 C 184.400 208.029,177.385 202.400,177.068 202.400 C 176.947 202.400,176.719 202.608,176.562 202.862 M236.962 205.700 C 235.681 207.295,234.914 208.375,235.258 208.100 C 235.991 207.513,239.738 202.800,239.472 202.800 C 239.372 202.800,238.242 204.105,236.962 205.700 M174.390 205.300 C 173.650 206.235,172.428 207.765,171.674 208.700 C 170.921 209.635,170.395 210.400,170.507 210.400 C 170.618 210.400,171.750 209.095,173.021 207.500 C 176.083 203.658,176.127 203.600,175.916 203.600 C 175.816 203.600,175.129 204.365,174.390 205.300 M110.383 206.900 C 109.640 207.835,109.348 208.346,109.735 208.036 C 110.463 207.451,112.177 205.200,111.894 205.200 C 111.806 205.200,111.126 205.965,110.383 206.900 M151.598 208.700 C 150.418 210.185,148.834 212.165,148.078 213.100 C 147.322 214.035,146.796 214.800,146.908 214.800 C 147.021 214.800,148.511 213.045,150.220 210.900 C 154.207 205.897,154.129 206.000,153.921 206.000 C 153.823 206.000,152.778 207.215,151.598 208.700 M276.400 209.700 C 274.736 211.821,274.305 212.564,275.520 211.219 C 276.677 209.939,278.107 208.000,277.894 208.000 C 277.806 208.000,277.134 208.765,276.400 209.700 M107.375 210.668 C 106.759 211.476,106.459 212.011,106.709 211.856 C 107.221 211.540,108.953 209.200,108.675 209.200 C 108.576 209.200,107.991 209.861,107.375 210.668 M232.200 211.049 L 230.200 212.881 232.300 211.203 C 234.118 209.751,234.695 209.176,234.300 209.208 C 234.245 209.213,233.300 210.041,232.200 211.049 M187.082 210.441 C 187.625 211.115,191.200 213.746,191.200 213.473 C 191.200 213.376,190.165 212.519,188.900 211.570 C 187.635 210.621,186.817 210.113,187.082 210.441 M104.800 214.200 C 104.119 215.190,103.652 216.000,103.762 216.000 C 103.872 216.000,104.519 215.190,105.200 214.200 C 105.881 213.210,106.348 212.400,106.238 212.400 C 106.128 212.400,105.481 213.210,104.800 214.200 M165.780 216.300 C 161.793 221.303,161.871 221.200,162.079 221.200 C 162.177 221.200,163.222 219.985,164.402 218.500 C 165.582 217.015,167.166 215.035,167.922 214.100 C 168.678 213.165,169.204 212.400,169.092 212.400 C 168.979 212.400,167.489 214.155,165.780 216.300 M272.951 214.100 C 271.770 215.448,271.080 216.400,271.284 216.400 C 271.384 216.400,272.045 215.680,272.752 214.800 C 274.125 213.092,274.264 212.601,272.951 214.100 M193.600 215.164 C 194.150 215.614,194.780 215.983,195.000 215.985 C 195.428 215.988,194.705 215.434,193.400 214.760 C 192.869 214.485,192.936 214.621,193.600 215.164 M195.828 216.359 C 196.343 216.909,200.340 218.410,201.194 218.375 C 201.527 218.361,200.775 218.012,199.521 217.600 C 198.268 217.188,196.828 216.637,196.321 216.376 C 195.668 216.040,195.524 216.035,195.828 216.359 M102.953 216.900 C 101.576 219.236,101.486 219.435,102.187 218.600 C 103.000 217.632,103.700 216.400,103.438 216.400 C 103.333 216.400,103.115 216.625,102.953 216.900 M142.979 219.700 C 140.508 222.800,139.622 224.087,141.107 222.419 C 142.622 220.717,145.665 216.800,145.472 216.800 C 145.372 216.800,144.250 218.105,142.979 219.700 M218.400 218.418 C 217.962 218.715,218.124 218.752,219.000 218.556 C 220.471 218.227,220.790 217.998,219.767 218.006 C 219.345 218.009,218.730 218.195,218.400 218.418 M215.700 219.076 C 216.085 219.176,216.715 219.176,217.100 219.076 C 217.485 218.975,217.170 218.893,216.400 218.893 C 215.630 218.893,215.315 218.975,215.700 219.076 M267.777 220.700 C 265.654 223.354,265.477 223.600,265.692 223.600 C 265.796 223.600,266.730 222.520,267.768 221.200 C 268.805 219.880,269.573 218.800,269.475 218.800 C 269.377 218.800,268.612 219.655,267.777 220.700 M208.307 219.890 C 209.026 219.979,210.106 219.977,210.707 219.886 C 211.308 219.795,210.720 219.722,209.400 219.724 C 208.080 219.726,207.588 219.801,208.307 219.890 M99.265 223.417 C 98.595 224.888,98.723 225.202,99.447 223.865 C 99.786 223.240,99.988 222.654,99.896 222.563 C 99.805 222.471,99.521 222.856,99.265 223.417 M158.235 225.900 C 157.229 227.165,156.406 228.470,156.405 228.800 C 156.405 229.130,156.666 228.900,156.984 228.290 C 157.303 227.679,158.223 226.374,159.030 225.390 C 159.836 224.405,160.399 223.600,160.281 223.600 C 160.162 223.600,159.242 224.635,158.235 225.900 M264.151 225.300 C 262.970 226.648,262.280 227.600,262.484 227.600 C 262.584 227.600,263.245 226.880,263.952 226.000 C 265.325 224.292,265.464 223.801,264.151 225.300 M135.919 228.700 C 133.494 231.715,130.400 236.186,130.400 236.674 C 130.400 236.850,131.377 235.554,132.572 233.796 C 133.766 232.038,135.581 229.565,136.604 228.300 C 137.628 227.035,138.381 226.000,138.277 226.000 C 138.174 226.000,137.113 227.215,135.919 228.700 M97.179 228.255 C 96.958 228.836,96.852 229.385,96.943 229.476 C 97.033 229.567,97.299 229.092,97.533 228.420 C 98.053 226.928,97.739 226.782,97.179 228.255 M257.600 232.768 C 255.290 235.145,252.500 237.857,251.400 238.794 C 250.300 239.732,249.940 240.135,250.600 239.691 C 253.047 238.044,262.886 228.265,261.937 228.423 C 261.862 228.435,259.910 230.391,257.600 232.768 M158.200 230.587 C 158.860 231.167,159.940 232.006,160.600 232.453 L 161.800 233.266 160.600 232.213 C 159.940 231.633,158.860 230.794,158.200 230.347 L 157.000 229.534 158.200 230.587 M163.200 234.397 C 164.807 235.845,166.800 237.334,166.800 237.086 C 166.800 236.994,165.675 236.067,164.300 235.027 C 162.925 233.986,162.430 233.703,163.200 234.397 M95.049 234.615 C 94.912 234.973,94.818 235.656,94.841 236.133 C 94.867 236.681,95.003 236.486,95.210 235.603 C 95.560 234.116,95.465 233.533,95.049 234.615 M94.256 238.084 C 94.121 238.588,94.028 239.450,94.049 240.000 C 94.072 240.589,94.231 240.271,94.436 239.225 C 94.803 237.352,94.673 236.527,94.256 238.084 M167.600 237.725 C 167.600 237.824,168.261 238.409,169.068 239.025 C 169.876 239.641,170.411 239.941,170.256 239.691 C 169.940 239.179,167.600 237.447,167.600 237.725 M170.800 240.146 C 170.800 240.256,171.340 240.730,172.000 241.200 C 172.660 241.670,173.200 241.964,173.200 241.854 C 173.200 241.744,172.660 241.270,172.000 240.800 C 171.340 240.330,170.800 240.036,170.800 240.146 M128.040 242.240 C 127.810 243.073,127.694 243.827,127.782 243.915 C 127.870 244.003,128.130 243.393,128.360 242.560 C 128.590 241.727,128.706 240.973,128.618 240.885 C 128.530 240.797,128.270 241.407,128.040 242.240 M244.200 243.600 C 242.880 244.479,241.938 245.198,242.106 245.199 C 242.449 245.200,246.800 242.368,246.800 242.143 C 246.800 241.887,246.632 241.981,244.200 243.600 M93.324 245.400 C 93.326 246.720,93.401 247.212,93.490 246.493 C 93.579 245.774,93.577 244.694,93.486 244.093 C 93.395 243.492,93.322 244.080,93.324 245.400 M184.000 247.814 C 184.000 248.093,186.906 249.231,187.291 249.103 C 187.482 249.039,186.820 248.684,185.819 248.313 C 184.819 247.942,184.000 247.717,184.000 247.814 M126.531 251.800 C 126.533 253.340,126.605 253.921,126.692 253.091 C 126.779 252.261,126.777 251.001,126.689 250.291 C 126.600 249.581,126.529 250.260,126.531 251.800 M188.227 249.555 C 188.652 249.944,191.129 250.596,190.754 250.220 C 190.619 250.086,189.911 249.804,189.181 249.595 C 188.451 249.385,188.022 249.368,188.227 249.555 M229.200 250.225 C 228.430 250.516,228.094 250.765,228.454 250.777 C 228.814 250.790,229.714 250.537,230.454 250.216 C 232.120 249.492,231.116 249.500,229.200 250.225 M92.928 252.400 C 92.928 253.830,93.001 254.415,93.089 253.700 C 93.178 252.985,93.178 251.815,93.089 251.100 C 93.001 250.385,92.928 250.970,92.928 252.400 M193.200 251.194 C 193.530 251.411,194.235 251.591,194.767 251.594 C 196.051 251.602,195.725 251.375,194.000 251.058 C 193.015 250.877,192.778 250.918,193.200 251.194 M198.100 252.276 C 198.485 252.376,199.115 252.376,199.500 252.276 C 199.885 252.175,199.570 252.093,198.800 252.093 C 198.030 252.093,197.715 252.175,198.100 252.276 M220.900 252.276 C 221.285 252.376,221.915 252.376,222.300 252.276 C 222.685 252.175,222.370 252.093,221.600 252.093 C 220.830 252.093,220.515 252.175,220.900 252.276 M204.291 253.089 C 205.001 253.177,206.261 253.179,207.091 253.092 C 207.921 253.005,207.340 252.933,205.800 252.931 C 204.260 252.929,203.581 253.000,204.291 253.089 M213.500 253.089 C 214.215 253.178,215.385 253.178,216.100 253.089 C 216.815 253.001,216.230 252.928,214.800 252.928 C 213.370 252.928,212.785 253.001,213.500 253.089 M93.331 258.200 C 93.333 259.740,93.405 260.321,93.492 259.491 C 93.579 258.661,93.577 257.401,93.489 256.691 C 93.400 255.981,93.329 256.660,93.331 258.200 M127.293 258.400 C 127.293 259.170,127.375 259.485,127.476 259.100 C 127.576 258.715,127.576 258.085,127.476 257.700 C 127.375 257.315,127.293 257.630,127.293 258.400 M127.844 261.000 C 128.173 262.471,128.402 262.790,128.394 261.767 C 128.391 261.345,128.205 260.730,127.982 260.400 C 127.685 259.962,127.648 260.124,127.844 261.000 M94.101 264.200 C 94.105 265.080,94.187 265.393,94.283 264.895 C 94.379 264.398,94.375 263.678,94.275 263.295 C 94.175 262.913,94.096 263.320,94.101 264.200 M94.806 267.833 C 94.809 268.255,94.995 268.870,95.218 269.200 C 95.515 269.638,95.552 269.476,95.356 268.600 C 95.027 267.129,94.798 266.810,94.806 267.833 M130.415 267.400 C 130.417 267.620,130.786 268.250,131.236 268.800 C 131.779 269.464,131.915 269.531,131.640 269.000 C 130.966 267.695,130.412 266.972,130.415 267.400 M96.251 272.774 C 96.627 274.239,97.571 276.286,97.555 275.600 C 97.547 275.270,97.194 274.280,96.771 273.400 C 96.348 272.520,96.114 272.238,96.251 272.774 M183.955 273.100 C 183.408 273.705,182.719 274.560,182.425 275.000 C 182.130 275.440,182.559 275.035,183.378 274.100 C 185.210 272.008,185.400 272.005,187.948 274.034 C 189.076 274.933,190.000 275.578,190.000 275.468 C 190.000 275.103,185.904 272.000,185.423 272.000 C 185.162 272.000,184.502 272.495,183.955 273.100 M135.750 274.682 C 136.603 275.592,138.133 276.902,139.150 277.594 C 140.731 278.669,140.797 278.688,139.603 277.726 C 138.835 277.107,137.305 275.796,136.203 274.813 L 134.200 273.027 135.750 274.682 M179.800 277.060 C 178.595 278.136,178.505 278.285,179.436 277.663 C 180.541 276.924,181.932 275.576,181.549 275.615 C 181.467 275.623,180.680 276.273,179.800 277.060 M195.200 279.584 C 195.970 280.270,197.680 281.650,199.000 282.649 C 200.320 283.648,200.770 283.903,200.000 283.216 C 199.230 282.530,197.520 281.150,196.200 280.151 C 194.880 279.152,194.430 278.897,195.200 279.584 M141.400 279.090 C 141.620 279.300,142.520 279.876,143.400 280.370 C 144.280 280.865,144.640 280.970,144.200 280.604 C 143.306 279.861,140.772 278.491,141.400 279.090 M175.400 280.000 C 174.740 280.437,174.380 280.792,174.600 280.788 C 175.001 280.782,177.176 279.223,176.800 279.212 C 176.690 279.208,176.060 279.563,175.400 280.000 M99.609 280.944 C 99.595 281.481,101.929 285.688,102.859 286.800 L 103.695 287.800 102.961 286.600 C 102.557 285.940,101.640 284.320,100.923 283.000 C 100.205 281.680,99.614 280.755,99.609 280.944 M149.233 282.944 C 149.325 283.023,149.940 283.208,150.600 283.356 C 151.476 283.552,151.638 283.515,151.200 283.218 C 150.660 282.853,148.832 282.598,149.233 282.944 M167.600 283.218 C 167.162 283.515,167.324 283.552,168.200 283.356 C 169.671 283.027,169.990 282.798,168.967 282.806 C 168.545 282.809,167.930 282.995,167.600 283.218 M164.900 283.876 C 165.285 283.976,165.915 283.976,166.300 283.876 C 166.685 283.775,166.370 283.693,165.600 283.693 C 164.830 283.693,164.515 283.775,164.900 283.876 M157.100 284.689 C 157.815 284.778,158.985 284.778,159.700 284.689 C 160.415 284.601,159.830 284.528,158.400 284.528 C 156.970 284.528,156.385 284.601,157.100 284.689 M205.200 287.328 C 205.200 287.461,209.728 291.206,211.132 292.235 C 211.526 292.523,209.815 294.664,206.050 298.594 L 201.829 303.000 205.726 299.200 C 207.870 297.110,210.105 294.708,210.692 293.862 L 211.761 292.325 210.908 291.662 C 210.439 291.298,208.963 290.133,207.628 289.073 C 206.293 288.014,205.200 287.229,205.200 287.328 M105.947 291.400 C 106.394 292.060,107.233 293.140,107.813 293.800 L 108.866 295.000 108.053 293.800 C 107.606 293.140,106.767 292.060,106.187 291.400 L 105.134 290.200 105.947 291.400 M110.000 296.371 C 110.000 296.725,113.954 300.596,114.091 300.376 C 114.151 300.279,113.255 299.280,112.100 298.155 C 110.945 297.031,110.000 296.228,110.000 296.371 M116.581 302.437 C 119.732 305.242,126.400 310.022,126.400 309.476 C 126.400 309.383,125.635 308.807,124.700 308.197 C 123.765 307.586,121.740 306.124,120.200 304.946 C 118.660 303.768,116.770 302.325,116.000 301.739 C 115.230 301.153,115.491 301.467,116.581 302.437 M196.490 306.566 C 194.054 308.236,192.781 309.273,194.000 308.594 C 195.275 307.885,199.200 305.161,199.200 304.985 C 199.200 304.710,199.198 304.711,196.490 306.566 M190.865 309.992 C 189.202 310.920,188.907 311.202,189.860 310.951 C 190.537 310.774,192.862 309.199,192.400 309.232 C 192.290 309.240,191.599 309.581,190.865 309.992 M185.600 312.600 C 185.050 312.914,184.780 313.172,185.000 313.172 C 185.220 313.172,185.850 312.914,186.400 312.600 C 186.950 312.286,187.220 312.028,187.000 312.028 C 186.780 312.028,186.150 312.286,185.600 312.600 M179.685 314.702 C 178.082 315.253,176.844 315.777,176.933 315.867 C 177.093 316.026,183.240 314.074,183.567 313.760 C 183.951 313.391,182.416 313.764,179.685 314.702 M141.600 315.982 C 141.930 316.205,142.545 316.391,142.967 316.394 C 143.990 316.402,143.671 316.173,142.200 315.844 C 141.324 315.648,141.162 315.685,141.600 315.982 M146.100 317.076 C 146.485 317.176,147.115 317.176,147.500 317.076 C 147.885 316.975,147.570 316.893,146.800 316.893 C 146.030 316.893,145.715 316.975,146.100 317.076 M151.700 317.891 C 152.525 317.978,153.875 317.978,154.700 317.891 C 155.525 317.805,154.850 317.734,153.200 317.734 C 151.550 317.734,150.875 317.805,151.700 317.891 M165.107 317.890 C 165.826 317.979,166.906 317.977,167.507 317.886 C 168.108 317.795,167.520 317.722,166.200 317.724 C 164.880 317.726,164.388 317.801,165.107 317.890 M159.111 318.293 C 160.051 318.378,161.491 318.377,162.311 318.291 C 163.130 318.205,162.360 318.136,160.600 318.137 C 158.840 318.139,158.170 318.209,159.111 318.293 " stroke="none" fill="#3cb4fc" fill-rule="evenodd"></path></g></svg>